<?xml version="1.0" encoding="utf-8"?>
<svg xmlns="http://www.w3.org/2000/svg" xmlns:xlink="http://www.w3.org/1999/xlink" width="600" height="400" viewBox="0 0 2400 1600">
<defs>
  <clipPath id="clip450">
    <rect x="0" y="0" width="2400" height="1600"/>
  </clipPath>
</defs>
<path clip-path="url(#clip450)" d="M0 1600 L2400 1600 L2400 0 L0 0  Z" fill="#ffffff" fill-rule="evenodd" fill-opacity="1"/>
<defs>
  <clipPath id="clip451">
    <rect x="480" y="0" width="1681" height="1600"/>
  </clipPath>
</defs>
<path clip-path="url(#clip450)" d="M257.204 623.18 L2352.76 623.18 L2352.76 123.472 L257.204 123.472  Z" fill="#ffffff" fill-rule="evenodd" fill-opacity="1"/>
<defs>
  <clipPath id="clip452">
    <rect x="257" y="123" width="2097" height="501"/>
  </clipPath>
</defs>
<polyline clip-path="url(#clip452)" style="stroke:#000000; stroke-linecap:round; stroke-linejoin:round; stroke-width:2; stroke-opacity:0.1; fill:none" points="316.512,623.18 316.512,123.472 "/>
<polyline clip-path="url(#clip452)" style="stroke:#000000; stroke-linecap:round; stroke-linejoin:round; stroke-width:2; stroke-opacity:0.1; fill:none" points="975.491,623.18 975.491,123.472 "/>
<polyline clip-path="url(#clip452)" style="stroke:#000000; stroke-linecap:round; stroke-linejoin:round; stroke-width:2; stroke-opacity:0.1; fill:none" points="1634.47,623.18 1634.47,123.472 "/>
<polyline clip-path="url(#clip452)" style="stroke:#000000; stroke-linecap:round; stroke-linejoin:round; stroke-width:2; stroke-opacity:0.1; fill:none" points="2293.45,623.18 2293.45,123.472 "/>
<polyline clip-path="url(#clip450)" style="stroke:#000000; stroke-linecap:round; stroke-linejoin:round; stroke-width:4; stroke-opacity:1; fill:none" points="257.204,623.18 2352.76,623.18 "/>
<polyline clip-path="url(#clip450)" style="stroke:#000000; stroke-linecap:round; stroke-linejoin:round; stroke-width:4; stroke-opacity:1; fill:none" points="316.512,623.18 316.512,604.282 "/>
<polyline clip-path="url(#clip450)" style="stroke:#000000; stroke-linecap:round; stroke-linejoin:round; stroke-width:4; stroke-opacity:1; fill:none" points="975.491,623.18 975.491,604.282 "/>
<polyline clip-path="url(#clip450)" style="stroke:#000000; stroke-linecap:round; stroke-linejoin:round; stroke-width:4; stroke-opacity:1; fill:none" points="1634.47,623.18 1634.47,604.282 "/>
<polyline clip-path="url(#clip450)" style="stroke:#000000; stroke-linecap:round; stroke-linejoin:round; stroke-width:4; stroke-opacity:1; fill:none" points="2293.45,623.18 2293.45,604.282 "/>
<path clip-path="url(#clip450)" d="M316.512 654.099 Q312.901 654.099 311.072 657.663 Q309.267 661.205 309.267 668.335 Q309.267 675.441 311.072 679.006 Q312.901 682.547 316.512 682.547 Q320.146 682.547 321.952 679.006 Q323.781 675.441 323.781 668.335 Q323.781 661.205 321.952 657.663 Q320.146 654.099 316.512 654.099 M316.512 650.395 Q322.322 650.395 325.378 655.001 Q328.456 659.585 328.456 668.335 Q328.456 677.061 325.378 681.668 Q322.322 686.251 316.512 686.251 Q310.702 686.251 307.623 681.668 Q304.568 677.061 304.568 668.335 Q304.568 659.585 307.623 655.001 Q310.702 650.395 316.512 650.395 Z" fill="#000000" fill-rule="nonzero" fill-opacity="1" /><path clip-path="url(#clip450)" d="M965.873 681.645 L973.512 681.645 L973.512 655.279 L965.201 656.946 L965.201 652.687 L973.465 651.02 L978.141 651.02 L978.141 681.645 L985.78 681.645 L985.78 685.58 L965.873 685.58 L965.873 681.645 Z" fill="#000000" fill-rule="nonzero" fill-opacity="1" /><path clip-path="url(#clip450)" d="M1629.12 681.645 L1645.44 681.645 L1645.44 685.58 L1623.5 685.58 L1623.5 681.645 Q1626.16 678.89 1630.74 674.26 Q1635.35 669.608 1636.53 668.265 Q1638.77 665.742 1639.65 664.006 Q1640.56 662.247 1640.56 660.557 Q1640.56 657.802 1638.61 656.066 Q1636.69 654.33 1633.59 654.33 Q1631.39 654.33 1628.94 655.094 Q1626.51 655.858 1623.73 657.409 L1623.73 652.687 Q1626.55 651.552 1629.01 650.974 Q1631.46 650.395 1633.5 650.395 Q1638.87 650.395 1642.06 653.08 Q1645.26 655.765 1645.26 660.256 Q1645.26 662.386 1644.45 664.307 Q1643.66 666.205 1641.55 668.798 Q1640.97 669.469 1637.87 672.686 Q1634.77 675.881 1629.12 681.645 Z" fill="#000000" fill-rule="nonzero" fill-opacity="1" /><path clip-path="url(#clip450)" d="M2297.7 666.946 Q2301.05 667.663 2302.93 669.932 Q2304.83 672.2 2304.83 675.534 Q2304.83 680.649 2301.31 683.45 Q2297.79 686.251 2291.31 686.251 Q2289.13 686.251 2286.82 685.811 Q2284.52 685.395 2282.07 684.538 L2282.07 680.024 Q2284.02 681.159 2286.33 681.737 Q2288.64 682.316 2291.17 682.316 Q2295.57 682.316 2297.86 680.58 Q2300.17 678.844 2300.17 675.534 Q2300.17 672.478 2298.02 670.765 Q2295.89 669.029 2292.07 669.029 L2288.04 669.029 L2288.04 665.186 L2292.26 665.186 Q2295.7 665.186 2297.53 663.821 Q2299.36 662.432 2299.36 659.839 Q2299.36 657.177 2297.46 655.765 Q2295.59 654.33 2292.07 654.33 Q2290.15 654.33 2287.95 654.747 Q2285.75 655.163 2283.11 656.043 L2283.11 651.876 Q2285.77 651.136 2288.09 650.765 Q2290.43 650.395 2292.49 650.395 Q2297.81 650.395 2300.91 652.825 Q2304.01 655.233 2304.01 659.353 Q2304.01 662.223 2302.37 664.214 Q2300.73 666.182 2297.7 666.946 Z" fill="#000000" fill-rule="nonzero" fill-opacity="1" /><path clip-path="url(#clip450)" d="M1226.86 720.524 L1267.06 720.524 L1267.06 725.935 L1250.19 725.935 L1250.19 768.044 L1243.73 768.044 L1243.73 725.935 L1226.86 725.935 L1226.86 720.524 Z" fill="#000000" fill-rule="nonzero" fill-opacity="1" /><path clip-path="url(#clip450)" d="M1271 732.396 L1276.86 732.396 L1276.86 768.044 L1271 768.044 L1271 732.396 M1271 718.519 L1276.86 718.519 L1276.86 725.935 L1271 725.935 L1271 718.519 Z" fill="#000000" fill-rule="nonzero" fill-opacity="1" /><path clip-path="url(#clip450)" d="M1316.87 739.239 Q1319.06 735.292 1322.12 733.414 Q1325.18 731.537 1329.31 731.537 Q1334.88 731.537 1337.91 735.451 Q1340.93 739.335 1340.93 746.528 L1340.93 768.044 L1335.04 768.044 L1335.04 746.719 Q1335.04 741.594 1333.23 739.112 Q1331.41 736.629 1327.69 736.629 Q1323.14 736.629 1320.5 739.653 Q1317.85 742.677 1317.85 747.896 L1317.85 768.044 L1311.97 768.044 L1311.97 746.719 Q1311.97 741.563 1310.15 739.112 Q1308.34 736.629 1304.55 736.629 Q1300.06 736.629 1297.42 739.685 Q1294.78 742.708 1294.78 747.896 L1294.78 768.044 L1288.89 768.044 L1288.89 732.396 L1294.78 732.396 L1294.78 737.934 Q1296.78 734.656 1299.59 733.096 Q1302.39 731.537 1306.24 731.537 Q1310.12 731.537 1312.83 733.51 Q1315.56 735.483 1316.87 739.239 Z" fill="#000000" fill-rule="nonzero" fill-opacity="1" /><path clip-path="url(#clip450)" d="M1383.1 748.756 L1383.1 751.62 L1356.18 751.62 Q1356.56 757.668 1359.8 760.851 Q1363.08 764.002 1368.91 764.002 Q1372.28 764.002 1375.43 763.174 Q1378.62 762.347 1381.73 760.691 L1381.73 766.23 Q1378.58 767.566 1375.27 768.267 Q1371.96 768.967 1368.56 768.967 Q1360.03 768.967 1355.03 764.002 Q1350.07 759.036 1350.07 750.57 Q1350.07 741.817 1354.78 736.693 Q1359.52 731.537 1367.54 731.537 Q1374.73 731.537 1378.9 736.183 Q1383.1 740.799 1383.1 748.756 M1377.25 747.037 Q1377.18 742.231 1374.54 739.366 Q1371.93 736.502 1367.6 736.502 Q1362.7 736.502 1359.74 739.271 Q1356.81 742.04 1356.37 747.069 L1377.25 747.037 Z" fill="#000000" fill-rule="nonzero" fill-opacity="1" /><polyline clip-path="url(#clip452)" style="stroke:#000000; stroke-linecap:round; stroke-linejoin:round; stroke-width:2; stroke-opacity:0.1; fill:none" points="257.204,604.751 2352.76,604.751 "/>
<polyline clip-path="url(#clip452)" style="stroke:#000000; stroke-linecap:round; stroke-linejoin:round; stroke-width:2; stroke-opacity:0.1; fill:none" points="257.204,522.062 2352.76,522.062 "/>
<polyline clip-path="url(#clip452)" style="stroke:#000000; stroke-linecap:round; stroke-linejoin:round; stroke-width:2; stroke-opacity:0.1; fill:none" points="257.204,439.373 2352.76,439.373 "/>
<polyline clip-path="url(#clip452)" style="stroke:#000000; stroke-linecap:round; stroke-linejoin:round; stroke-width:2; stroke-opacity:0.1; fill:none" points="257.204,356.685 2352.76,356.685 "/>
<polyline clip-path="url(#clip452)" style="stroke:#000000; stroke-linecap:round; stroke-linejoin:round; stroke-width:2; stroke-opacity:0.1; fill:none" points="257.204,273.996 2352.76,273.996 "/>
<polyline clip-path="url(#clip452)" style="stroke:#000000; stroke-linecap:round; stroke-linejoin:round; stroke-width:2; stroke-opacity:0.1; fill:none" points="257.204,191.308 2352.76,191.308 "/>
<polyline clip-path="url(#clip450)" style="stroke:#000000; stroke-linecap:round; stroke-linejoin:round; stroke-width:4; stroke-opacity:1; fill:none" points="257.204,623.18 257.204,123.472 "/>
<polyline clip-path="url(#clip450)" style="stroke:#000000; stroke-linecap:round; stroke-linejoin:round; stroke-width:4; stroke-opacity:1; fill:none" points="257.204,604.751 276.102,604.751 "/>
<polyline clip-path="url(#clip450)" style="stroke:#000000; stroke-linecap:round; stroke-linejoin:round; stroke-width:4; stroke-opacity:1; fill:none" points="257.204,522.062 276.102,522.062 "/>
<polyline clip-path="url(#clip450)" style="stroke:#000000; stroke-linecap:round; stroke-linejoin:round; stroke-width:4; stroke-opacity:1; fill:none" points="257.204,439.373 276.102,439.373 "/>
<polyline clip-path="url(#clip450)" style="stroke:#000000; stroke-linecap:round; stroke-linejoin:round; stroke-width:4; stroke-opacity:1; fill:none" points="257.204,356.685 276.102,356.685 "/>
<polyline clip-path="url(#clip450)" style="stroke:#000000; stroke-linecap:round; stroke-linejoin:round; stroke-width:4; stroke-opacity:1; fill:none" points="257.204,273.996 276.102,273.996 "/>
<polyline clip-path="url(#clip450)" style="stroke:#000000; stroke-linecap:round; stroke-linejoin:round; stroke-width:4; stroke-opacity:1; fill:none" points="257.204,191.308 276.102,191.308 "/>
<path clip-path="url(#clip450)" d="M160.14 605.202 L189.815 605.202 L189.815 609.137 L160.14 609.137 L160.14 605.202 Z" fill="#000000" fill-rule="nonzero" fill-opacity="1" /><path clip-path="url(#clip450)" d="M214.074 603.396 Q217.431 604.114 219.306 606.383 Q221.204 608.651 221.204 611.984 Q221.204 617.1 217.686 619.901 Q214.167 622.702 207.686 622.702 Q205.51 622.702 203.195 622.262 Q200.903 621.845 198.45 620.989 L198.45 616.475 Q200.394 617.609 202.709 618.188 Q205.024 618.767 207.547 618.767 Q211.945 618.767 214.236 617.031 Q216.551 615.295 216.551 611.984 Q216.551 608.929 214.399 607.216 Q212.269 605.48 208.449 605.48 L204.422 605.48 L204.422 601.637 L208.635 601.637 Q212.084 601.637 213.912 600.272 Q215.741 598.883 215.741 596.29 Q215.741 593.628 213.843 592.216 Q211.968 590.781 208.449 590.781 Q206.528 590.781 204.329 591.197 Q202.13 591.614 199.491 592.494 L199.491 588.327 Q202.153 587.586 204.468 587.216 Q206.806 586.846 208.866 586.846 Q214.19 586.846 217.292 589.276 Q220.394 591.684 220.394 595.804 Q220.394 598.674 218.75 600.665 Q217.107 602.633 214.074 603.396 Z" fill="#000000" fill-rule="nonzero" fill-opacity="1" /><path clip-path="url(#clip450)" d="M161.089 522.513 L190.764 522.513 L190.764 526.449 L161.089 526.449 L161.089 522.513 Z" fill="#000000" fill-rule="nonzero" fill-opacity="1" /><path clip-path="url(#clip450)" d="M204.885 535.407 L221.204 535.407 L221.204 539.342 L199.26 539.342 L199.26 535.407 Q201.922 532.652 206.505 528.023 Q211.111 523.37 212.292 522.027 Q214.537 519.504 215.417 517.768 Q216.32 516.009 216.32 514.319 Q216.32 511.564 214.375 509.828 Q212.454 508.092 209.352 508.092 Q207.153 508.092 204.699 508.856 Q202.269 509.62 199.491 511.171 L199.491 506.449 Q202.315 505.314 204.769 504.736 Q207.223 504.157 209.26 504.157 Q214.63 504.157 217.824 506.842 Q221.019 509.527 221.019 514.018 Q221.019 516.148 220.209 518.069 Q219.422 519.967 217.315 522.56 Q216.736 523.231 213.635 526.449 Q210.533 529.643 204.885 535.407 Z" fill="#000000" fill-rule="nonzero" fill-opacity="1" /><path clip-path="url(#clip450)" d="M160.718 439.825 L190.394 439.825 L190.394 443.76 L160.718 443.76 L160.718 439.825 Z" fill="#000000" fill-rule="nonzero" fill-opacity="1" /><path clip-path="url(#clip450)" d="M201.297 452.718 L208.936 452.718 L208.936 426.353 L200.625 428.019 L200.625 423.76 L208.889 422.093 L213.565 422.093 L213.565 452.718 L221.204 452.718 L221.204 456.653 L201.297 456.653 L201.297 452.718 Z" fill="#000000" fill-rule="nonzero" fill-opacity="1" /><path clip-path="url(#clip450)" d="M209.26 342.484 Q205.649 342.484 203.82 346.048 Q202.014 349.59 202.014 356.72 Q202.014 363.826 203.82 367.391 Q205.649 370.932 209.26 370.932 Q212.894 370.932 214.699 367.391 Q216.528 363.826 216.528 356.72 Q216.528 349.59 214.699 346.048 Q212.894 342.484 209.26 342.484 M209.26 338.78 Q215.07 338.78 218.125 343.386 Q221.204 347.97 221.204 356.72 Q221.204 365.446 218.125 370.053 Q215.07 374.636 209.26 374.636 Q203.449 374.636 200.371 370.053 Q197.315 365.446 197.315 356.72 Q197.315 347.97 200.371 343.386 Q203.449 338.78 209.26 338.78 Z" fill="#000000" fill-rule="nonzero" fill-opacity="1" /><path clip-path="url(#clip450)" d="M201.297 287.341 L208.936 287.341 L208.936 260.976 L200.625 262.642 L200.625 258.383 L208.889 256.716 L213.565 256.716 L213.565 287.341 L221.204 287.341 L221.204 291.276 L201.297 291.276 L201.297 287.341 Z" fill="#000000" fill-rule="nonzero" fill-opacity="1" /><path clip-path="url(#clip450)" d="M204.885 204.653 L221.204 204.653 L221.204 208.588 L199.26 208.588 L199.26 204.653 Q201.922 201.898 206.505 197.268 Q211.111 192.616 212.292 191.273 Q214.537 188.75 215.417 187.014 Q216.32 185.254 216.32 183.565 Q216.32 180.81 214.375 179.074 Q212.454 177.338 209.352 177.338 Q207.153 177.338 204.699 178.102 Q202.269 178.866 199.491 180.417 L199.491 175.694 Q202.315 174.56 204.769 173.981 Q207.223 173.403 209.26 173.403 Q214.63 173.403 217.824 176.088 Q221.019 178.773 221.019 183.264 Q221.019 185.393 220.209 187.315 Q219.422 189.213 217.315 191.805 Q216.736 192.477 213.635 195.694 Q210.533 198.889 204.885 204.653 Z" fill="#000000" fill-rule="nonzero" fill-opacity="1" /><path clip-path="url(#clip450)" d="M87.2853 363.205 L87.2853 383.479 Q96.802 383.002 100.844 380.806 Q105.809 378.068 105.809 373.326 Q105.809 368.552 100.812 365.91 Q96.4201 363.586 87.2853 363.205 M81.8744 363.3 Q72.8351 364.191 69.6523 365.91 Q64.6234 368.647 64.6234 373.326 Q64.6234 378.196 69.5886 380.774 Q73.599 382.811 81.8744 383.416 L81.8744 363.3 M59.8491 373.326 Q59.8491 365.687 66.5967 361.327 Q73.3126 356.966 85.2164 356.966 Q97.0885 356.966 103.836 361.327 Q110.616 365.687 110.616 373.326 Q110.616 380.997 103.836 385.325 Q97.0885 389.686 85.2164 389.686 Q73.3126 389.686 66.5967 385.325 Q59.8491 380.997 59.8491 373.326 Z" fill="#000000" fill-rule="nonzero" fill-opacity="1" /><path clip-path="url(#clip450)" d="M1193.56 43.8146 L1167.76 43.8146 Q1168.36 55.9268 1171.16 61.0714 Q1174.64 67.3908 1180.68 67.3908 Q1186.75 67.3908 1190.12 61.0309 Q1193.07 55.4407 1193.56 43.8146 M1193.44 36.928 Q1192.3 25.4235 1190.12 21.3726 Q1186.63 14.9721 1180.68 14.9721 Q1174.48 14.9721 1171.2 21.2916 Q1168.61 26.3957 1167.84 36.928 L1193.44 36.928 M1180.68 8.89579 Q1190.4 8.89579 1195.95 17.4837 Q1201.5 26.0311 1201.5 41.1815 Q1201.5 56.2914 1195.95 64.8793 Q1190.4 73.5077 1180.68 73.5077 Q1170.92 73.5077 1165.41 64.8793 Q1159.86 56.2914 1159.86 41.1815 Q1159.86 26.0311 1165.41 17.4837 Q1170.92 8.89579 1180.68 8.89579 Z" fill="#000000" fill-rule="nonzero" fill-opacity="1" /><path clip-path="url(#clip450)" d="M1236.46 46.5287 L1258.29 46.5287 L1258.29 53.1722 L1236.46 53.1722 L1236.46 46.5287 Z" fill="#000000" fill-rule="nonzero" fill-opacity="1" /><path clip-path="url(#clip450)" d="M1288.47 12.096 L1339.64 12.096 L1339.64 18.9825 L1318.17 18.9825 L1318.17 72.576 L1309.94 72.576 L1309.94 18.9825 L1288.47 18.9825 L1288.47 12.096 Z" fill="#000000" fill-rule="nonzero" fill-opacity="1" /><path clip-path="url(#clip450)" d="M1371.92 48.0275 L1371.92 51.6733 L1337.65 51.6733 Q1338.14 59.3701 1342.27 63.421 Q1346.44 67.4314 1353.85 67.4314 Q1358.15 67.4314 1362.16 66.3781 Q1366.21 65.3249 1370.18 63.2184 L1370.18 70.267 Q1366.17 71.9684 1361.96 72.8596 Q1357.74 73.7508 1353.41 73.7508 Q1342.55 73.7508 1336.19 67.4314 Q1329.87 61.1119 1329.87 50.3365 Q1329.87 39.1965 1335.87 32.6746 Q1341.9 26.1121 1352.11 26.1121 Q1361.27 26.1121 1366.57 32.0264 Q1371.92 37.9003 1371.92 48.0275 M1364.47 45.84 Q1364.39 39.7232 1361.02 36.0774 Q1357.7 32.4315 1352.19 32.4315 Q1345.95 32.4315 1342.19 35.9558 Q1338.46 39.4801 1337.89 45.8805 L1364.47 45.84 Z" fill="#000000" fill-rule="nonzero" fill-opacity="1" /><path clip-path="url(#clip450)" d="M1413.08 28.5427 L1413.08 35.5912 Q1409.92 33.9709 1406.52 33.1607 Q1403.11 32.3505 1399.47 32.3505 Q1393.92 32.3505 1391.12 34.0519 Q1388.37 35.7533 1388.37 39.156 Q1388.37 41.7486 1390.35 43.2475 Q1392.34 44.7058 1398.33 46.0426 L1400.89 46.6097 Q1408.82 48.3111 1412.15 51.4303 Q1415.51 54.509 1415.51 60.0587 Q1415.51 66.3781 1410.49 70.0644 Q1405.5 73.7508 1396.75 73.7508 Q1393.11 73.7508 1389.14 73.0216 Q1385.21 72.3329 1380.83 70.9151 L1380.83 63.2184 Q1384.97 65.3654 1388.98 66.4591 Q1392.99 67.5124 1396.92 67.5124 Q1402.18 67.5124 1405.02 65.73 Q1407.85 63.9071 1407.85 60.6258 Q1407.85 57.5877 1405.79 55.9673 Q1403.76 54.3469 1396.83 52.8481 L1394.24 52.2405 Q1387.31 50.7821 1384.24 47.7845 Q1381.16 44.7463 1381.16 39.4801 Q1381.16 33.0797 1385.69 29.5959 Q1390.23 26.1121 1398.58 26.1121 Q1402.71 26.1121 1406.35 26.7198 Q1410 27.3274 1413.08 28.5427 Z" fill="#000000" fill-rule="nonzero" fill-opacity="1" /><path clip-path="url(#clip450)" d="M1434.75 14.324 L1434.75 27.2059 L1450.1 27.2059 L1450.1 32.9987 L1434.75 32.9987 L1434.75 57.6282 Q1434.75 63.1779 1436.25 64.7578 Q1437.79 66.3376 1442.45 66.3376 L1450.1 66.3376 L1450.1 72.576 L1442.45 72.576 Q1433.82 72.576 1430.54 69.3758 Q1427.26 66.1351 1427.26 57.6282 L1427.26 32.9987 L1421.79 32.9987 L1421.79 27.2059 L1427.26 27.2059 L1427.26 14.324 L1434.75 14.324 Z" fill="#000000" fill-rule="nonzero" fill-opacity="1" /><polyline clip-path="url(#clip452)" style="stroke:#0000ff; stroke-linecap:round; stroke-linejoin:round; stroke-width:4; stroke-opacity:1; fill:none" points="316.512,609.037 384.682,606.753 452.853,603.585 521.023,599.254 589.193,593.379 657.363,585.451 725.533,574.802 793.703,560.583 861.874,541.768 930.044,517.265 998.214,486.154 1066.38,448.275 1134.55,404.923 1202.72,359.241 1270.89,315.636 1339.07,278.097 1407.24,249.246 1475.41,229.921 1543.58,219.998 1611.75,219.008 1679.92,226.501 1748.09,242.062 1816.26,265.133 1884.43,294.473 1952.6,327.997 2020.77,362.643 2088.94,394.95 2157.11,421.981 2225.28,441.639 2293.45,453.117 "/>
<polyline clip-path="url(#clip452)" style="stroke:#0000ff; stroke-linecap:round; stroke-linejoin:round; stroke-width:4; stroke-opacity:1; fill:none" stroke-dasharray="16, 10" points="316.512,609.037 384.682,606.195 452.853,595.68 521.023,577.873 589.193,554.744 657.363,524.789 725.533,484.442 793.703,435.612 861.874,382.691 930.044,332.956 998.214,289.052 1066.38,251.193 1134.55,221.245 1202.72,204.378 1270.89,195.677 1339.07,193.539 1407.24,196.963 1475.41,203.743 1543.58,215.606 1611.75,236.305 1679.92,266.174 1748.09,304.791 1816.26,350.147 1884.43,392.187 1952.6,425.392 2020.77,448.963 2088.94,462.312 2157.11,467.82 2225.28,469.19 2293.45,465.386 "/>
<polyline clip-path="url(#clip452)" style="stroke:#ff0000; stroke-linecap:round; stroke-linejoin:round; stroke-width:4; stroke-opacity:1; fill:none" points="316.512,142.995 384.682,138.144 452.853,137.615 521.023,141.141 589.193,148.833 657.363,161.137 725.533,178.769 793.703,202.584 861.874,233.245 930.044,270.67 998.214,313.333 1066.38,357.955 1134.55,400.188 1202.72,436.166 1270.89,463.504 1339.07,481.402 1407.24,489.978 1475.41,489.669 1543.58,480.918 1611.75,464.179 1679.92,440.166 1748.09,410.348 1816.26,377.033 1884.43,343.355 1952.6,312.742 2020.77,287.887 2088.94,270.522 2157.11,261.303 2225.28,260.262 2293.45,267.015 "/>
<polyline clip-path="url(#clip452)" style="stroke:#ff0000; stroke-linecap:round; stroke-linejoin:round; stroke-width:4; stroke-opacity:1; fill:none" stroke-dasharray="16, 10" points="316.512,142.995 384.682,142.284 452.853,147.195 521.023,155.511 589.193,166.682 657.363,182.328 725.533,206.619 793.703,241.273 861.874,285.746 930.044,337.389 998.214,387.414 1066.38,427.657 1134.55,458.598 1202.72,479.175 1270.89,488.802 1339.07,493.054 1407.24,493.587 1475.41,489.282 1543.58,480.025 1611.75,465.338 1679.92,442.15 1748.09,412.207 1816.26,378.499 1884.43,343.672 1952.6,309.434 2020.77,280.626 2088.94,262.788 2157.11,253.315 2225.28,249.756 2293.45,253.727 "/>
<polyline clip-path="url(#clip452)" style="stroke:#008000; stroke-linecap:round; stroke-linejoin:round; stroke-width:4; stroke-opacity:1; fill:none" points="316.512,434.759 384.682,425.478 452.853,410.459 521.023,391.129 589.193,369.396 657.363,347.481 725.533,327.597 793.703,311.596 861.874,300.747 930.044,295.7 998.214,296.563 1066.38,302.965 1134.55,314.123 1202.72,328.842 1270.89,345.586 1339.07,362.602 1407.24,378.162 1475.41,390.791 1543.58,399.42 1611.75,403.47 1679.92,402.815 1748.09,397.74 1816.26,388.931 1884.43,377.377 1952.6,364.332 2020.77,351.174 2088.94,339.233 2157.11,329.65 2225.28,323.246 2293.45,320.464 "/>
<polyline clip-path="url(#clip452)" style="stroke:#008000; stroke-linecap:round; stroke-linejoin:round; stroke-width:4; stroke-opacity:1; fill:none" stroke-dasharray="16, 10" points="316.512,434.759 384.682,427.869 452.853,415.096 521.023,397.243 589.193,375.599 657.363,352.04 725.533,328.075 793.703,306.991 861.874,293.296 930.044,287.472 998.214,289.233 1066.38,297.668 1134.55,311.479 1202.72,329.214 1270.89,348.638 1339.07,367.591 1407.24,384.025 1475.41,396.234 1543.58,403.07 1611.75,403.935 1679.92,399.863 1748.09,391.645 1816.26,379.724 1884.43,364.821 1952.6,348.215 2020.77,332.55 2088.94,320.326 2157.11,313.021 2225.28,310.932 2293.45,313.579 "/>
<polyline clip-path="url(#clip452)" style="stroke:#800080; stroke-linecap:round; stroke-linejoin:round; stroke-width:4; stroke-opacity:1; fill:none" points="316.512,422.059 384.682,419.564 452.853,411.403 521.023,398.497 589.193,382.186 657.363,364.16 725.533,346.289 793.703,330.366 861.874,317.865 930.044,309.786 998.214,306.627 1066.38,308.405 1134.55,314.723 1202.72,324.798 1270.89,337.518 1339.07,351.52 1407.24,365.337 1475.41,377.585 1543.58,387.119 1611.75,393.157 1679.92,395.309 1748.09,393.566 1816.26,388.296 1884.43,380.161 1952.6,370.088 2020.77,359.173 2088.94,348.553 2157.11,339.292 2225.28,332.25 2293.45,328.005 "/>
<polyline clip-path="url(#clip452)" style="stroke:#800080; stroke-linecap:round; stroke-linejoin:round; stroke-width:4; stroke-opacity:1; fill:none" stroke-dasharray="16, 10" points="316.512,422.059 384.682,421.414 452.853,415.442 521.023,404.328 589.193,388.77 657.363,369.851 725.533,349.168 793.703,328.312 861.874,311.384 930.044,300.9 998.214,297.152 1066.38,299.765 1134.55,307.903 1202.72,320.496 1270.89,335.92 1339.07,352.383 1407.24,368.064 1475.41,381.286 1543.58,390.693 1611.75,395.413 1679.92,394.817 1748.09,389.638 1816.26,380.846 1884.43,368.977 1952.6,355.031 2020.77,340.998 2088.94,329.258 2157.11,321.221 2225.28,317.501 2293.45,317.987 "/>
<path clip-path="url(#clip450)" d="M1859.76 295.649 L2282.9 295.649 L2282.9 140.129 L1859.76 140.129  Z" fill="#ffffff" fill-rule="evenodd" fill-opacity="1"/>
<polyline clip-path="url(#clip450)" style="stroke:#000000; stroke-linecap:round; stroke-linejoin:round; stroke-width:4; stroke-opacity:1; fill:none" points="1859.76,295.649 2282.9,295.649 2282.9,140.129 1859.76,140.129 1859.76,295.649 "/>
<polyline clip-path="url(#clip450)" style="stroke:#000000; stroke-linecap:round; stroke-linejoin:round; stroke-width:4; stroke-opacity:1; fill:none" points="1883.05,191.969 2022.75,191.969 "/>
<path clip-path="url(#clip450)" d="M2046.03 174.689 L2075.27 174.689 L2075.27 178.624 L2063 178.624 L2063 209.249 L2058.3 209.249 L2058.3 178.624 L2046.03 178.624 L2046.03 174.689 Z" fill="#000000" fill-rule="nonzero" fill-opacity="1" /><path clip-path="url(#clip450)" d="M2087.65 187.305 Q2086.94 186.888 2086.08 186.703 Q2085.25 186.495 2084.23 186.495 Q2080.62 186.495 2078.67 188.856 Q2076.75 191.194 2076.75 195.592 L2076.75 209.249 L2072.47 209.249 L2072.47 183.323 L2076.75 183.323 L2076.75 187.351 Q2078.09 184.99 2080.25 183.856 Q2082.4 182.698 2085.48 182.698 Q2085.92 182.698 2086.45 182.768 Q2086.98 182.814 2087.63 182.93 L2087.65 187.305 Z" fill="#000000" fill-rule="nonzero" fill-opacity="1" /><path clip-path="url(#clip450)" d="M2091.68 199.018 L2091.68 183.323 L2095.94 183.323 L2095.94 198.856 Q2095.94 202.536 2097.38 204.388 Q2098.81 206.217 2101.68 206.217 Q2105.13 206.217 2107.12 204.018 Q2109.13 201.819 2109.13 198.022 L2109.13 183.323 L2113.39 183.323 L2113.39 209.249 L2109.13 209.249 L2109.13 205.268 Q2107.58 207.629 2105.52 208.786 Q2103.49 209.92 2100.78 209.92 Q2096.31 209.92 2094 207.143 Q2091.68 204.365 2091.68 199.018 M2102.4 182.698 L2102.4 182.698 Z" fill="#000000" fill-rule="nonzero" fill-opacity="1" /><path clip-path="url(#clip450)" d="M2144.34 195.221 L2144.34 197.305 L2124.76 197.305 Q2125.04 201.703 2127.4 204.018 Q2129.78 206.309 2134.02 206.309 Q2136.47 206.309 2138.76 205.707 Q2141.08 205.106 2143.35 203.902 L2143.35 207.93 Q2141.06 208.902 2138.65 209.411 Q2136.24 209.92 2133.76 209.92 Q2127.56 209.92 2123.93 206.309 Q2120.32 202.698 2120.32 196.541 Q2120.32 190.175 2123.74 186.448 Q2127.19 182.698 2133.02 182.698 Q2138.26 182.698 2141.29 186.078 Q2144.34 189.434 2144.34 195.221 M2140.08 193.971 Q2140.04 190.476 2138.12 188.393 Q2136.22 186.309 2133.07 186.309 Q2129.51 186.309 2127.35 188.323 Q2125.22 190.337 2124.9 193.995 L2140.08 193.971 Z" fill="#000000" fill-rule="nonzero" fill-opacity="1" /><polyline clip-path="url(#clip450)" style="stroke:#000000; stroke-linecap:round; stroke-linejoin:round; stroke-width:4; stroke-opacity:1; fill:none" stroke-dasharray="16, 10" points="1883.05,243.809 2022.75,243.809 "/>
<path clip-path="url(#clip450)" d="M2050.71 230.372 L2050.71 243.358 L2056.59 243.358 Q2059.85 243.358 2061.64 241.668 Q2063.42 239.978 2063.42 236.853 Q2063.42 233.751 2061.64 232.061 Q2059.85 230.372 2056.59 230.372 L2050.71 230.372 M2046.03 226.529 L2056.59 226.529 Q2062.4 226.529 2065.36 229.168 Q2068.35 231.784 2068.35 236.853 Q2068.35 241.969 2065.36 244.585 Q2062.4 247.2 2056.59 247.2 L2050.71 247.2 L2050.71 261.089 L2046.03 261.089 L2046.03 226.529 Z" fill="#000000" fill-rule="nonzero" fill-opacity="1" /><path clip-path="url(#clip450)" d="M2088.63 239.145 Q2087.91 238.728 2087.05 238.543 Q2086.22 238.335 2085.2 238.335 Q2081.59 238.335 2079.64 240.696 Q2077.72 243.034 2077.72 247.432 L2077.72 261.089 L2073.44 261.089 L2073.44 235.163 L2077.72 235.163 L2077.72 239.191 Q2079.07 236.83 2081.22 235.696 Q2083.37 234.538 2086.45 234.538 Q2086.89 234.538 2087.42 234.608 Q2087.95 234.654 2088.6 234.77 L2088.63 239.145 Z" fill="#000000" fill-rule="nonzero" fill-opacity="1" /><path clip-path="url(#clip450)" d="M2114.23 247.061 L2114.23 249.145 L2094.64 249.145 Q2094.92 253.543 2097.28 255.858 Q2099.67 258.149 2103.9 258.149 Q2106.36 258.149 2108.65 257.547 Q2110.96 256.946 2113.23 255.742 L2113.23 259.77 Q2110.94 260.742 2108.53 261.251 Q2106.13 261.76 2103.65 261.76 Q2097.45 261.76 2093.81 258.149 Q2090.2 254.538 2090.2 248.381 Q2090.2 242.015 2093.63 238.288 Q2097.07 234.538 2102.91 234.538 Q2108.14 234.538 2111.17 237.918 Q2114.23 241.274 2114.23 247.061 M2109.97 245.811 Q2109.92 242.316 2108 240.233 Q2106.1 238.149 2102.95 238.149 Q2099.39 238.149 2097.24 240.163 Q2095.11 242.177 2094.78 245.835 L2109.97 245.811 Z" fill="#000000" fill-rule="nonzero" fill-opacity="1" /><path clip-path="url(#clip450)" d="M2138.28 239.098 L2138.28 225.071 L2142.54 225.071 L2142.54 261.089 L2138.28 261.089 L2138.28 257.2 Q2136.94 259.515 2134.88 260.649 Q2132.84 261.76 2129.97 261.76 Q2125.27 261.76 2122.31 258.01 Q2119.37 254.26 2119.37 248.149 Q2119.37 242.038 2122.31 238.288 Q2125.27 234.538 2129.97 234.538 Q2132.84 234.538 2134.88 235.673 Q2136.94 236.784 2138.28 239.098 M2123.76 248.149 Q2123.76 252.848 2125.69 255.534 Q2127.63 258.196 2131.01 258.196 Q2134.39 258.196 2136.33 255.534 Q2138.28 252.848 2138.28 248.149 Q2138.28 243.45 2136.33 240.788 Q2134.39 238.103 2131.01 238.103 Q2127.63 238.103 2125.69 240.788 Q2123.76 243.45 2123.76 248.149 Z" fill="#000000" fill-rule="nonzero" fill-opacity="1" /><path clip-path="url(#clip450)" d="M2151.31 235.163 L2155.57 235.163 L2155.57 261.089 L2151.31 261.089 L2151.31 235.163 M2151.31 225.071 L2155.57 225.071 L2155.57 230.464 L2151.31 230.464 L2151.31 225.071 Z" fill="#000000" fill-rule="nonzero" fill-opacity="1" /><path clip-path="url(#clip450)" d="M2183.14 236.159 L2183.14 240.14 Q2181.33 239.145 2179.5 238.659 Q2177.7 238.149 2175.85 238.149 Q2171.7 238.149 2169.41 240.788 Q2167.12 243.404 2167.12 248.149 Q2167.12 252.895 2169.41 255.534 Q2171.7 258.149 2175.85 258.149 Q2177.7 258.149 2179.5 257.663 Q2181.33 257.154 2183.14 256.159 L2183.14 260.094 Q2181.36 260.927 2179.44 261.344 Q2177.54 261.76 2175.38 261.76 Q2169.53 261.76 2166.08 258.08 Q2162.63 254.399 2162.63 248.149 Q2162.63 241.807 2166.1 238.173 Q2169.6 234.538 2175.66 234.538 Q2177.63 234.538 2179.5 234.955 Q2181.38 235.348 2183.14 236.159 Z" fill="#000000" fill-rule="nonzero" fill-opacity="1" /><path clip-path="url(#clip450)" d="M2194.76 227.802 L2194.76 235.163 L2203.53 235.163 L2203.53 238.473 L2194.76 238.473 L2194.76 252.547 Q2194.76 255.719 2195.62 256.621 Q2196.5 257.524 2199.16 257.524 L2203.53 257.524 L2203.53 261.089 L2199.16 261.089 Q2194.23 261.089 2192.35 259.26 Q2190.48 257.409 2190.48 252.547 L2190.48 238.473 L2187.35 238.473 L2187.35 235.163 L2190.48 235.163 L2190.48 227.802 L2194.76 227.802 Z" fill="#000000" fill-rule="nonzero" fill-opacity="1" /><path clip-path="url(#clip450)" d="M2231.31 247.061 L2231.31 249.145 L2211.73 249.145 Q2212 253.543 2214.37 255.858 Q2216.75 258.149 2220.99 258.149 Q2223.44 258.149 2225.73 257.547 Q2228.05 256.946 2230.31 255.742 L2230.31 259.77 Q2228.02 260.742 2225.62 261.251 Q2223.21 261.76 2220.73 261.76 Q2214.53 261.76 2210.89 258.149 Q2207.28 254.538 2207.28 248.381 Q2207.28 242.015 2210.71 238.288 Q2214.16 234.538 2219.99 234.538 Q2225.22 234.538 2228.25 237.918 Q2231.31 241.274 2231.31 247.061 M2227.05 245.811 Q2227 242.316 2225.08 240.233 Q2223.19 238.149 2220.04 238.149 Q2216.47 238.149 2214.32 240.163 Q2212.19 242.177 2211.87 245.835 L2227.05 245.811 Z" fill="#000000" fill-rule="nonzero" fill-opacity="1" /><path clip-path="url(#clip450)" d="M2255.36 239.098 L2255.36 225.071 L2259.62 225.071 L2259.62 261.089 L2255.36 261.089 L2255.36 257.2 Q2254.02 259.515 2251.96 260.649 Q2249.92 261.76 2247.05 261.76 Q2242.35 261.76 2239.39 258.01 Q2236.45 254.26 2236.45 248.149 Q2236.45 242.038 2239.39 238.288 Q2242.35 234.538 2247.05 234.538 Q2249.92 234.538 2251.96 235.673 Q2254.02 236.784 2255.36 239.098 M2240.85 248.149 Q2240.85 252.848 2242.77 255.534 Q2244.71 258.196 2248.09 258.196 Q2251.47 258.196 2253.42 255.534 Q2255.36 252.848 2255.36 248.149 Q2255.36 243.45 2253.42 240.788 Q2251.47 238.103 2248.09 238.103 Q2244.71 238.103 2242.77 240.788 Q2240.85 243.45 2240.85 248.149 Z" fill="#000000" fill-rule="nonzero" fill-opacity="1" /><path clip-path="url(#clip450)" d="M257.204 1423.18 L2352.76 1423.18 L2352.76 923.472 L257.204 923.472  Z" fill="#ffffff" fill-rule="evenodd" fill-opacity="1"/>
<defs>
  <clipPath id="clip453">
    <rect x="257" y="923" width="2097" height="501"/>
  </clipPath>
</defs>
<polyline clip-path="url(#clip453)" style="stroke:#000000; stroke-linecap:round; stroke-linejoin:round; stroke-width:2; stroke-opacity:0.1; fill:none" points="316.512,1423.18 316.512,923.472 "/>
<polyline clip-path="url(#clip453)" style="stroke:#000000; stroke-linecap:round; stroke-linejoin:round; stroke-width:2; stroke-opacity:0.1; fill:none" points="975.491,1423.18 975.491,923.472 "/>
<polyline clip-path="url(#clip453)" style="stroke:#000000; stroke-linecap:round; stroke-linejoin:round; stroke-width:2; stroke-opacity:0.1; fill:none" points="1634.47,1423.18 1634.47,923.472 "/>
<polyline clip-path="url(#clip453)" style="stroke:#000000; stroke-linecap:round; stroke-linejoin:round; stroke-width:2; stroke-opacity:0.1; fill:none" points="2293.45,1423.18 2293.45,923.472 "/>
<polyline clip-path="url(#clip450)" style="stroke:#000000; stroke-linecap:round; stroke-linejoin:round; stroke-width:4; stroke-opacity:1; fill:none" points="257.204,1423.18 2352.76,1423.18 "/>
<polyline clip-path="url(#clip450)" style="stroke:#000000; stroke-linecap:round; stroke-linejoin:round; stroke-width:4; stroke-opacity:1; fill:none" points="316.512,1423.18 316.512,1404.28 "/>
<polyline clip-path="url(#clip450)" style="stroke:#000000; stroke-linecap:round; stroke-linejoin:round; stroke-width:4; stroke-opacity:1; fill:none" points="975.491,1423.18 975.491,1404.28 "/>
<polyline clip-path="url(#clip450)" style="stroke:#000000; stroke-linecap:round; stroke-linejoin:round; stroke-width:4; stroke-opacity:1; fill:none" points="1634.47,1423.18 1634.47,1404.28 "/>
<polyline clip-path="url(#clip450)" style="stroke:#000000; stroke-linecap:round; stroke-linejoin:round; stroke-width:4; stroke-opacity:1; fill:none" points="2293.45,1423.18 2293.45,1404.28 "/>
<path clip-path="url(#clip450)" d="M316.512 1454.1 Q312.901 1454.1 311.072 1457.66 Q309.267 1461.2 309.267 1468.33 Q309.267 1475.44 311.072 1479.01 Q312.901 1482.55 316.512 1482.55 Q320.146 1482.55 321.952 1479.01 Q323.781 1475.44 323.781 1468.33 Q323.781 1461.2 321.952 1457.66 Q320.146 1454.1 316.512 1454.1 M316.512 1450.39 Q322.322 1450.39 325.378 1455 Q328.456 1459.58 328.456 1468.33 Q328.456 1477.06 325.378 1481.67 Q322.322 1486.25 316.512 1486.25 Q310.702 1486.25 307.623 1481.67 Q304.568 1477.06 304.568 1468.33 Q304.568 1459.58 307.623 1455 Q310.702 1450.39 316.512 1450.39 Z" fill="#000000" fill-rule="nonzero" fill-opacity="1" /><path clip-path="url(#clip450)" d="M965.873 1481.64 L973.512 1481.64 L973.512 1455.28 L965.201 1456.95 L965.201 1452.69 L973.465 1451.02 L978.141 1451.02 L978.141 1481.64 L985.78 1481.64 L985.78 1485.58 L965.873 1485.58 L965.873 1481.64 Z" fill="#000000" fill-rule="nonzero" fill-opacity="1" /><path clip-path="url(#clip450)" d="M1629.12 1481.64 L1645.44 1481.64 L1645.44 1485.58 L1623.5 1485.58 L1623.5 1481.64 Q1626.16 1478.89 1630.74 1474.26 Q1635.35 1469.61 1636.53 1468.27 Q1638.77 1465.74 1639.65 1464.01 Q1640.56 1462.25 1640.56 1460.56 Q1640.56 1457.8 1638.61 1456.07 Q1636.69 1454.33 1633.59 1454.33 Q1631.39 1454.33 1628.94 1455.09 Q1626.51 1455.86 1623.73 1457.41 L1623.73 1452.69 Q1626.55 1451.55 1629.01 1450.97 Q1631.46 1450.39 1633.5 1450.39 Q1638.87 1450.39 1642.06 1453.08 Q1645.26 1455.77 1645.26 1460.26 Q1645.26 1462.39 1644.45 1464.31 Q1643.66 1466.2 1641.55 1468.8 Q1640.97 1469.47 1637.87 1472.69 Q1634.77 1475.88 1629.12 1481.64 Z" fill="#000000" fill-rule="nonzero" fill-opacity="1" /><path clip-path="url(#clip450)" d="M2297.7 1466.95 Q2301.05 1467.66 2302.93 1469.93 Q2304.83 1472.2 2304.83 1475.53 Q2304.83 1480.65 2301.31 1483.45 Q2297.79 1486.25 2291.31 1486.25 Q2289.13 1486.25 2286.82 1485.81 Q2284.52 1485.39 2282.07 1484.54 L2282.07 1480.02 Q2284.02 1481.16 2286.33 1481.74 Q2288.64 1482.32 2291.17 1482.32 Q2295.57 1482.32 2297.86 1480.58 Q2300.17 1478.84 2300.17 1475.53 Q2300.17 1472.48 2298.02 1470.77 Q2295.89 1469.03 2292.07 1469.03 L2288.04 1469.03 L2288.04 1465.19 L2292.26 1465.19 Q2295.7 1465.19 2297.53 1463.82 Q2299.36 1462.43 2299.36 1459.84 Q2299.36 1457.18 2297.46 1455.77 Q2295.59 1454.33 2292.07 1454.33 Q2290.15 1454.33 2287.95 1454.75 Q2285.75 1455.16 2283.11 1456.04 L2283.11 1451.88 Q2285.77 1451.14 2288.09 1450.77 Q2290.43 1450.39 2292.49 1450.39 Q2297.81 1450.39 2300.91 1452.83 Q2304.01 1455.23 2304.01 1459.35 Q2304.01 1462.22 2302.37 1464.21 Q2300.73 1466.18 2297.7 1466.95 Z" fill="#000000" fill-rule="nonzero" fill-opacity="1" /><path clip-path="url(#clip450)" d="M1226.86 1520.52 L1267.06 1520.52 L1267.06 1525.93 L1250.19 1525.93 L1250.19 1568.04 L1243.73 1568.04 L1243.73 1525.93 L1226.86 1525.93 L1226.86 1520.52 Z" fill="#000000" fill-rule="nonzero" fill-opacity="1" /><path clip-path="url(#clip450)" d="M1271 1532.4 L1276.86 1532.4 L1276.86 1568.04 L1271 1568.04 L1271 1532.4 M1271 1518.52 L1276.86 1518.52 L1276.86 1525.93 L1271 1525.93 L1271 1518.52 Z" fill="#000000" fill-rule="nonzero" fill-opacity="1" /><path clip-path="url(#clip450)" d="M1316.87 1539.24 Q1319.06 1535.29 1322.12 1533.41 Q1325.18 1531.54 1329.31 1531.54 Q1334.88 1531.54 1337.91 1535.45 Q1340.93 1539.33 1340.93 1546.53 L1340.93 1568.04 L1335.04 1568.04 L1335.04 1546.72 Q1335.04 1541.59 1333.23 1539.11 Q1331.41 1536.63 1327.69 1536.63 Q1323.14 1536.63 1320.5 1539.65 Q1317.85 1542.68 1317.85 1547.9 L1317.85 1568.04 L1311.97 1568.04 L1311.97 1546.72 Q1311.97 1541.56 1310.15 1539.11 Q1308.34 1536.63 1304.55 1536.63 Q1300.06 1536.63 1297.42 1539.68 Q1294.78 1542.71 1294.78 1547.9 L1294.78 1568.04 L1288.89 1568.04 L1288.89 1532.4 L1294.78 1532.4 L1294.78 1537.93 Q1296.78 1534.66 1299.59 1533.1 Q1302.39 1531.54 1306.24 1531.54 Q1310.12 1531.54 1312.83 1533.51 Q1315.56 1535.48 1316.87 1539.24 Z" fill="#000000" fill-rule="nonzero" fill-opacity="1" /><path clip-path="url(#clip450)" d="M1383.1 1548.76 L1383.1 1551.62 L1356.18 1551.62 Q1356.56 1557.67 1359.8 1560.85 Q1363.08 1564 1368.91 1564 Q1372.28 1564 1375.43 1563.17 Q1378.62 1562.35 1381.73 1560.69 L1381.73 1566.23 Q1378.58 1567.57 1375.27 1568.27 Q1371.96 1568.97 1368.56 1568.97 Q1360.03 1568.97 1355.03 1564 Q1350.07 1559.04 1350.07 1550.57 Q1350.07 1541.82 1354.78 1536.69 Q1359.52 1531.54 1367.54 1531.54 Q1374.73 1531.54 1378.9 1536.18 Q1383.1 1540.8 1383.1 1548.76 M1377.25 1547.04 Q1377.18 1542.23 1374.54 1539.37 Q1371.93 1536.5 1367.6 1536.5 Q1362.7 1536.5 1359.74 1539.27 Q1356.81 1542.04 1356.37 1547.07 L1377.25 1547.04 Z" fill="#000000" fill-rule="nonzero" fill-opacity="1" /><polyline clip-path="url(#clip453)" style="stroke:#000000; stroke-linecap:round; stroke-linejoin:round; stroke-width:2; stroke-opacity:0.1; fill:none" points="257.204,1401.39 2352.76,1401.39 "/>
<polyline clip-path="url(#clip453)" style="stroke:#000000; stroke-linecap:round; stroke-linejoin:round; stroke-width:2; stroke-opacity:0.1; fill:none" points="257.204,1296.07 2352.76,1296.07 "/>
<polyline clip-path="url(#clip453)" style="stroke:#000000; stroke-linecap:round; stroke-linejoin:round; stroke-width:2; stroke-opacity:0.1; fill:none" points="257.204,1190.74 2352.76,1190.74 "/>
<polyline clip-path="url(#clip453)" style="stroke:#000000; stroke-linecap:round; stroke-linejoin:round; stroke-width:2; stroke-opacity:0.1; fill:none" points="257.204,1085.41 2352.76,1085.41 "/>
<polyline clip-path="url(#clip453)" style="stroke:#000000; stroke-linecap:round; stroke-linejoin:round; stroke-width:2; stroke-opacity:0.1; fill:none" points="257.204,980.088 2352.76,980.088 "/>
<polyline clip-path="url(#clip450)" style="stroke:#000000; stroke-linecap:round; stroke-linejoin:round; stroke-width:4; stroke-opacity:1; fill:none" points="257.204,1423.18 257.204,923.472 "/>
<polyline clip-path="url(#clip450)" style="stroke:#000000; stroke-linecap:round; stroke-linejoin:round; stroke-width:4; stroke-opacity:1; fill:none" points="257.204,1401.39 276.102,1401.39 "/>
<polyline clip-path="url(#clip450)" style="stroke:#000000; stroke-linecap:round; stroke-linejoin:round; stroke-width:4; stroke-opacity:1; fill:none" points="257.204,1296.07 276.102,1296.07 "/>
<polyline clip-path="url(#clip450)" style="stroke:#000000; stroke-linecap:round; stroke-linejoin:round; stroke-width:4; stroke-opacity:1; fill:none" points="257.204,1190.74 276.102,1190.74 "/>
<polyline clip-path="url(#clip450)" style="stroke:#000000; stroke-linecap:round; stroke-linejoin:round; stroke-width:4; stroke-opacity:1; fill:none" points="257.204,1085.41 276.102,1085.41 "/>
<polyline clip-path="url(#clip450)" style="stroke:#000000; stroke-linecap:round; stroke-linejoin:round; stroke-width:4; stroke-opacity:1; fill:none" points="257.204,980.088 276.102,980.088 "/>
<path clip-path="url(#clip450)" d="M114.26 1401.84 L143.936 1401.84 L143.936 1405.78 L114.26 1405.78 L114.26 1401.84 Z" fill="#000000" fill-rule="nonzero" fill-opacity="1" /><path clip-path="url(#clip450)" d="M154.075 1384.11 L172.431 1384.11 L172.431 1388.05 L158.357 1388.05 L158.357 1396.52 Q159.376 1396.17 160.394 1396.01 Q161.413 1395.82 162.431 1395.82 Q168.218 1395.82 171.598 1399 Q174.977 1402.17 174.977 1407.58 Q174.977 1413.16 171.505 1416.26 Q168.033 1419.34 161.714 1419.34 Q159.538 1419.34 157.269 1418.97 Q155.024 1418.6 152.616 1417.86 L152.616 1413.16 Q154.7 1414.3 156.922 1414.85 Q159.144 1415.41 161.621 1415.41 Q165.626 1415.41 167.964 1413.3 Q170.302 1411.19 170.302 1407.58 Q170.302 1403.97 167.964 1401.87 Q165.626 1399.76 161.621 1399.76 Q159.746 1399.76 157.871 1400.18 Q156.019 1400.59 154.075 1401.47 L154.075 1384.11 Z" fill="#000000" fill-rule="nonzero" fill-opacity="1" /><path clip-path="url(#clip450)" d="M184.19 1412.79 L189.075 1412.79 L189.075 1418.67 L184.19 1418.67 L184.19 1412.79 Z" fill="#000000" fill-rule="nonzero" fill-opacity="1" /><path clip-path="url(#clip450)" d="M209.26 1387.19 Q205.649 1387.19 203.82 1390.75 Q202.014 1394.3 202.014 1401.43 Q202.014 1408.53 203.82 1412.1 Q205.649 1415.64 209.26 1415.64 Q212.894 1415.64 214.699 1412.1 Q216.528 1408.53 216.528 1401.43 Q216.528 1394.3 214.699 1390.75 Q212.894 1387.19 209.26 1387.19 M209.26 1383.49 Q215.07 1383.49 218.125 1388.09 Q221.204 1392.68 221.204 1401.43 Q221.204 1410.15 218.125 1414.76 Q215.07 1419.34 209.26 1419.34 Q203.449 1419.34 200.371 1414.76 Q197.315 1410.15 197.315 1401.43 Q197.315 1392.68 200.371 1388.09 Q203.449 1383.49 209.26 1383.49 Z" fill="#000000" fill-rule="nonzero" fill-opacity="1" /><path clip-path="url(#clip450)" d="M115.256 1296.52 L144.931 1296.52 L144.931 1300.45 L115.256 1300.45 L115.256 1296.52 Z" fill="#000000" fill-rule="nonzero" fill-opacity="1" /><path clip-path="url(#clip450)" d="M159.052 1309.41 L175.371 1309.41 L175.371 1313.35 L153.427 1313.35 L153.427 1309.41 Q156.089 1306.66 160.672 1302.03 Q165.278 1297.37 166.459 1296.03 Q168.704 1293.51 169.584 1291.77 Q170.487 1290.01 170.487 1288.32 Q170.487 1285.57 168.542 1283.83 Q166.621 1282.1 163.519 1282.1 Q161.32 1282.1 158.866 1282.86 Q156.436 1283.62 153.658 1285.17 L153.658 1280.45 Q156.482 1279.32 158.936 1278.74 Q161.39 1278.16 163.427 1278.16 Q168.797 1278.16 171.991 1280.85 Q175.186 1283.53 175.186 1288.02 Q175.186 1290.15 174.376 1292.07 Q173.589 1293.97 171.482 1296.56 Q170.903 1297.23 167.802 1300.45 Q164.7 1303.65 159.052 1309.41 Z" fill="#000000" fill-rule="nonzero" fill-opacity="1" /><path clip-path="url(#clip450)" d="M185.186 1307.47 L190.07 1307.47 L190.07 1313.35 L185.186 1313.35 L185.186 1307.47 Z" fill="#000000" fill-rule="nonzero" fill-opacity="1" /><path clip-path="url(#clip450)" d="M200.301 1278.79 L218.658 1278.79 L218.658 1282.72 L204.584 1282.72 L204.584 1291.19 Q205.602 1290.85 206.621 1290.68 Q207.639 1290.5 208.658 1290.5 Q214.445 1290.5 217.824 1293.67 Q221.204 1296.84 221.204 1302.26 Q221.204 1307.84 217.732 1310.94 Q214.26 1314.02 207.94 1314.02 Q205.764 1314.02 203.496 1313.65 Q201.25 1313.28 198.843 1312.54 L198.843 1307.84 Q200.926 1308.97 203.149 1309.53 Q205.371 1310.08 207.848 1310.08 Q211.852 1310.08 214.19 1307.98 Q216.528 1305.87 216.528 1302.26 Q216.528 1298.65 214.19 1296.54 Q211.852 1294.43 207.848 1294.43 Q205.973 1294.43 204.098 1294.85 Q202.246 1295.27 200.301 1296.15 L200.301 1278.79 Z" fill="#000000" fill-rule="nonzero" fill-opacity="1" /><path clip-path="url(#clip450)" d="M164.028 1176.54 Q160.417 1176.54 158.589 1180.1 Q156.783 1183.64 156.783 1190.77 Q156.783 1197.88 158.589 1201.45 Q160.417 1204.99 164.028 1204.99 Q167.663 1204.99 169.468 1201.45 Q171.297 1197.88 171.297 1190.77 Q171.297 1183.64 169.468 1180.1 Q167.663 1176.54 164.028 1176.54 M164.028 1172.83 Q169.839 1172.83 172.894 1177.44 Q175.973 1182.02 175.973 1190.77 Q175.973 1199.5 172.894 1204.11 Q169.839 1208.69 164.028 1208.69 Q158.218 1208.69 155.14 1204.11 Q152.084 1199.5 152.084 1190.77 Q152.084 1182.02 155.14 1177.44 Q158.218 1172.83 164.028 1172.83 Z" fill="#000000" fill-rule="nonzero" fill-opacity="1" /><path clip-path="url(#clip450)" d="M184.19 1202.14 L189.075 1202.14 L189.075 1208.02 L184.19 1208.02 L184.19 1202.14 Z" fill="#000000" fill-rule="nonzero" fill-opacity="1" /><path clip-path="url(#clip450)" d="M209.26 1176.54 Q205.649 1176.54 203.82 1180.1 Q202.014 1183.64 202.014 1190.77 Q202.014 1197.88 203.82 1201.45 Q205.649 1204.99 209.26 1204.99 Q212.894 1204.99 214.699 1201.45 Q216.528 1197.88 216.528 1190.77 Q216.528 1183.64 214.699 1180.1 Q212.894 1176.54 209.26 1176.54 M209.26 1172.83 Q215.07 1172.83 218.125 1177.44 Q221.204 1182.02 221.204 1190.77 Q221.204 1199.5 218.125 1204.11 Q215.07 1208.69 209.26 1208.69 Q203.449 1208.69 200.371 1204.11 Q197.315 1199.5 197.315 1190.77 Q197.315 1182.02 200.371 1177.44 Q203.449 1172.83 209.26 1172.83 Z" fill="#000000" fill-rule="nonzero" fill-opacity="1" /><path clip-path="url(#clip450)" d="M159.052 1098.76 L175.371 1098.76 L175.371 1102.69 L153.427 1102.69 L153.427 1098.76 Q156.089 1096 160.672 1091.37 Q165.278 1086.72 166.459 1085.38 Q168.704 1082.86 169.584 1081.12 Q170.487 1079.36 170.487 1077.67 Q170.487 1074.92 168.542 1073.18 Q166.621 1071.44 163.519 1071.44 Q161.32 1071.44 158.866 1072.21 Q156.436 1072.97 153.658 1074.52 L153.658 1069.8 Q156.482 1068.67 158.936 1068.09 Q161.39 1067.51 163.427 1067.51 Q168.797 1067.51 171.991 1070.19 Q175.186 1072.88 175.186 1077.37 Q175.186 1079.5 174.376 1081.42 Q173.589 1083.32 171.482 1085.91 Q170.903 1086.58 167.802 1089.8 Q164.7 1092.99 159.052 1098.76 Z" fill="#000000" fill-rule="nonzero" fill-opacity="1" /><path clip-path="url(#clip450)" d="M185.186 1096.81 L190.07 1096.81 L190.07 1102.69 L185.186 1102.69 L185.186 1096.81 Z" fill="#000000" fill-rule="nonzero" fill-opacity="1" /><path clip-path="url(#clip450)" d="M200.301 1068.13 L218.658 1068.13 L218.658 1072.07 L204.584 1072.07 L204.584 1080.54 Q205.602 1080.19 206.621 1080.03 Q207.639 1079.85 208.658 1079.85 Q214.445 1079.85 217.824 1083.02 Q221.204 1086.19 221.204 1091.61 Q221.204 1097.18 217.732 1100.29 Q214.26 1103.37 207.94 1103.37 Q205.764 1103.37 203.496 1102.99 Q201.25 1102.62 198.843 1101.88 L198.843 1097.18 Q200.926 1098.32 203.149 1098.87 Q205.371 1099.43 207.848 1099.43 Q211.852 1099.43 214.19 1097.32 Q216.528 1095.22 216.528 1091.61 Q216.528 1087.99 214.19 1085.89 Q211.852 1083.78 207.848 1083.78 Q205.973 1083.78 204.098 1084.2 Q202.246 1084.62 200.301 1085.49 L200.301 1068.13 Z" fill="#000000" fill-rule="nonzero" fill-opacity="1" /><path clip-path="url(#clip450)" d="M154.075 962.808 L172.431 962.808 L172.431 966.743 L158.357 966.743 L158.357 975.216 Q159.376 974.868 160.394 974.706 Q161.413 974.521 162.431 974.521 Q168.218 974.521 171.598 977.692 Q174.977 980.864 174.977 986.28 Q174.977 991.859 171.505 994.961 Q168.033 998.039 161.714 998.039 Q159.538 998.039 157.269 997.669 Q155.024 997.299 152.616 996.558 L152.616 991.859 Q154.7 992.993 156.922 993.549 Q159.144 994.104 161.621 994.104 Q165.626 994.104 167.964 991.998 Q170.302 989.891 170.302 986.28 Q170.302 982.669 167.964 980.563 Q165.626 978.456 161.621 978.456 Q159.746 978.456 157.871 978.873 Q156.019 979.29 154.075 980.169 L154.075 962.808 Z" fill="#000000" fill-rule="nonzero" fill-opacity="1" /><path clip-path="url(#clip450)" d="M184.19 991.489 L189.075 991.489 L189.075 997.368 L184.19 997.368 L184.19 991.489 Z" fill="#000000" fill-rule="nonzero" fill-opacity="1" /><path clip-path="url(#clip450)" d="M209.26 965.887 Q205.649 965.887 203.82 969.452 Q202.014 972.993 202.014 980.123 Q202.014 987.229 203.82 990.794 Q205.649 994.336 209.26 994.336 Q212.894 994.336 214.699 990.794 Q216.528 987.229 216.528 980.123 Q216.528 972.993 214.699 969.452 Q212.894 965.887 209.26 965.887 M209.26 962.183 Q215.07 962.183 218.125 966.79 Q221.204 971.373 221.204 980.123 Q221.204 988.85 218.125 993.456 Q215.07 998.039 209.26 998.039 Q203.449 998.039 200.371 993.456 Q197.315 988.85 197.315 980.123 Q197.315 971.373 200.371 966.79 Q203.449 962.183 209.26 962.183 Z" fill="#000000" fill-rule="nonzero" fill-opacity="1" /><path clip-path="url(#clip450)" d="M64.9272 1183.03 Q64.9272 1196.24 46.021 1196.24 Q38.5413 1196.24 28.3562 1191.31 L28.3562 1185.01 Q38.5413 1189.56 46.1802 1189.56 Q59.9619 1189.56 59.9619 1182.49 Q59.9619 1176.03 42.8382 1176.03 L42.8382 1170.62 Q59.9619 1170.62 59.9619 1164.16 Q59.9619 1157.09 46.1802 1157.09 Q38.5413 1157.09 28.3562 1161.64 L28.3562 1155.34 Q38.5413 1150.41 46.021 1150.41 Q64.9272 1150.41 64.9272 1163.62 Q64.9272 1172.28 55.4105 1173.33 Q64.9272 1174.63 64.9272 1183.03 Z" fill="#000000" fill-rule="nonzero" fill-opacity="1" /><path clip-path="url(#clip450)" d="M1167.76 873.751 Q1150.94 873.751 1150.94 849.688 Q1150.94 840.169 1157.22 827.206 L1165.24 827.206 Q1159.45 840.169 1159.45 849.891 Q1159.45 867.431 1168.44 867.431 Q1176.67 867.431 1176.67 845.637 L1183.55 845.637 Q1183.55 867.431 1191.78 867.431 Q1200.77 867.431 1200.77 849.891 Q1200.77 840.169 1194.98 827.206 L1203 827.206 Q1209.28 840.169 1209.28 849.688 Q1209.28 873.751 1192.47 873.751 Q1181.45 873.751 1180.11 861.639 Q1178.45 873.751 1167.76 873.751 Z" fill="#000000" fill-rule="nonzero" fill-opacity="1" /><path clip-path="url(#clip450)" d="M1245.37 846.529 L1267.21 846.529 L1267.21 853.172 L1245.37 853.172 L1245.37 846.529 Z" fill="#000000" fill-rule="nonzero" fill-opacity="1" /><path clip-path="url(#clip450)" d="M1297.38 812.096 L1348.55 812.096 L1348.55 818.983 L1327.08 818.983 L1327.08 872.576 L1318.85 872.576 L1318.85 818.983 L1297.38 818.983 L1297.38 812.096 Z" fill="#000000" fill-rule="nonzero" fill-opacity="1" /><path clip-path="url(#clip450)" d="M1380.83 848.028 L1380.83 851.673 L1346.56 851.673 Q1347.05 859.37 1351.18 863.421 Q1355.35 867.431 1362.77 867.431 Q1367.06 867.431 1371.07 866.378 Q1375.12 865.325 1379.09 863.218 L1379.09 870.267 Q1375.08 871.968 1370.87 872.86 Q1366.65 873.751 1362.32 873.751 Q1351.46 873.751 1345.1 867.431 Q1338.78 861.112 1338.78 850.337 Q1338.78 839.197 1344.78 832.675 Q1350.82 826.112 1361.02 826.112 Q1370.18 826.112 1375.49 832.026 Q1380.83 837.9 1380.83 848.028 M1373.38 845.84 Q1373.3 839.723 1369.94 836.077 Q1366.61 832.432 1361.11 832.432 Q1354.87 832.432 1351.1 835.956 Q1347.37 839.48 1346.81 845.881 L1373.38 845.84 Z" fill="#000000" fill-rule="nonzero" fill-opacity="1" /><path clip-path="url(#clip450)" d="M1421.99 828.543 L1421.99 835.591 Q1418.83 833.971 1415.43 833.161 Q1412.03 832.351 1408.38 832.351 Q1402.83 832.351 1400.03 834.052 Q1397.28 835.753 1397.28 839.156 Q1397.28 841.749 1399.26 843.247 Q1401.25 844.706 1407.25 846.043 L1409.8 846.61 Q1417.74 848.311 1421.06 851.43 Q1424.42 854.509 1424.42 860.059 Q1424.42 866.378 1419.4 870.064 Q1414.42 873.751 1405.67 873.751 Q1402.02 873.751 1398.05 873.022 Q1394.12 872.333 1389.75 870.915 L1389.75 863.218 Q1393.88 865.365 1397.89 866.459 Q1401.9 867.512 1405.83 867.512 Q1411.09 867.512 1413.93 865.73 Q1416.76 863.907 1416.76 860.626 Q1416.76 857.588 1414.7 855.967 Q1412.67 854.347 1405.75 852.848 L1403.15 852.24 Q1396.23 850.782 1393.15 847.784 Q1390.07 844.746 1390.07 839.48 Q1390.07 833.08 1394.61 829.596 Q1399.14 826.112 1407.49 826.112 Q1411.62 826.112 1415.27 826.72 Q1418.91 827.327 1421.99 828.543 Z" fill="#000000" fill-rule="nonzero" fill-opacity="1" /><path clip-path="url(#clip450)" d="M1443.66 814.324 L1443.66 827.206 L1459.02 827.206 L1459.02 832.999 L1443.66 832.999 L1443.66 857.628 Q1443.66 863.178 1445.16 864.758 Q1446.7 866.338 1451.36 866.338 L1459.02 866.338 L1459.02 872.576 L1451.36 872.576 Q1442.73 872.576 1439.45 869.376 Q1436.17 866.135 1436.17 857.628 L1436.17 832.999 L1430.7 832.999 L1430.7 827.206 L1436.17 827.206 L1436.17 814.324 L1443.66 814.324 Z" fill="#000000" fill-rule="nonzero" fill-opacity="1" /><polyline clip-path="url(#clip453)" style="stroke:#0000ff; stroke-linecap:round; stroke-linejoin:round; stroke-width:4; stroke-opacity:1; fill:none" points="316.512,1181.31 384.682,1177.51 452.853,1172.54 521.023,1165.97 589.193,1157.23 657.363,1145.61 725.533,1130.27 793.703,1110.29 861.874,1084.94 930.044,1054.34 998.214,1020.52 1066.38,988.84 1134.55,968.194 1202.72,967.074 1270.89,988.059 1339.07,1026.01 1407.24,1071.92 1475.41,1119.06 1543.58,1164.26 1611.75,1207.1 1679.92,1247.86 1748.09,1286.52 1816.26,1321.05 1884.43,1347.72 1952.6,1361.56 2020.77,1358.55 2088.94,1338.95 2157.11,1306.64 2225.28,1267.77 2293.45,1226.68 "/>
<polyline clip-path="url(#clip453)" style="stroke:#0000ff; stroke-linecap:round; stroke-linejoin:round; stroke-width:4; stroke-opacity:1; fill:none" stroke-dasharray="16, 10" points="316.512,1181.31 384.682,1126.33 452.853,1074.79 521.023,1028.4 589.193,988.536 657.363,958.105 725.533,940.186 793.703,937.615 861.874,949.178 930.044,970.797 998.214,1000.36 1066.38,1036.36 1134.55,1078.19 1202.72,1125.01 1270.89,1168.67 1339.07,1208.08 1407.24,1243.06 1475.41,1273.69 1543.58,1300.24 1611.75,1322.71 1679.92,1340.18 1748.09,1350.87 1816.26,1350.01 1884.43,1337.02 1952.6,1315.28 2020.77,1286.57 2088.94,1252.47 2157.11,1215.84 2225.28,1179.76 2293.45,1146.03 "/>
<polyline clip-path="url(#clip453)" style="stroke:#ff0000; stroke-linecap:round; stroke-linejoin:round; stroke-width:4; stroke-opacity:1; fill:none" points="316.512,1155.27 384.682,1177.87 452.853,1198.18 521.023,1218.13 589.193,1239.49 657.363,1263.79 725.533,1292.12 793.703,1324.54 861.874,1358.96 930.044,1389.96 998.214,1409.04 1066.38,1408.26 1134.55,1386.01 1202.72,1347.87 1270.89,1302.3 1339.07,1255.62 1407.24,1210.73 1475.41,1168.07 1543.58,1127.57 1611.75,1089.53 1679.92,1056.69 1748.09,1033 1816.26,1022.87 1884.43,1029.78 1952.6,1052.2 2020.77,1085.93 2088.94,1125.08 2157.11,1165.64 2225.28,1205.22 2293.45,1242.21 "/>
<polyline clip-path="url(#clip453)" style="stroke:#ff0000; stroke-linecap:round; stroke-linejoin:round; stroke-width:4; stroke-opacity:1; fill:none" stroke-dasharray="16, 10" points="316.512,1155.27 384.682,1202.12 452.853,1243.63 521.023,1280.04 589.193,1311.64 657.363,1340.04 725.533,1364.23 793.703,1382.62 861.874,1393.6 930.044,1394.18 998.214,1383.21 1066.38,1362.01 1134.55,1332.77 1202.72,1296.87 1270.89,1256.41 1339.07,1215.79 1407.24,1176.19 1475.41,1138.75 1543.58,1104.8 1611.75,1076.67 1679.92,1055.99 1748.09,1045.83 1816.26,1047.96 1884.43,1062.07 1952.6,1084.05 2020.77,1111.59 2088.94,1145.66 2157.11,1180.35 2225.28,1211.83 2293.45,1239 "/>
<polyline clip-path="url(#clip453)" style="stroke:#008000; stroke-linecap:round; stroke-linejoin:round; stroke-width:4; stroke-opacity:1; fill:none" points="316.512,1160.89 384.682,1129.93 452.853,1104.77 521.023,1087.88 589.193,1081.37 657.363,1086.09 725.533,1101.07 793.703,1123.84 861.874,1151.3 930.044,1180.55 998.214,1209.1 1066.38,1234.8 1134.55,1255.6 1202.72,1269.6 1270.89,1275.34 1339.07,1272.32 1407.24,1261.22 1475.41,1243.76 1543.58,1222.25 1611.75,1199.01 1679.92,1176.23 1748.09,1155.87 1816.26,1139.65 1884.43,1129.07 1952.6,1125.06 2020.77,1127.88 2088.94,1136.93 2157.11,1150.85 2225.28,1167.9 2293.45,1186.24 "/>
<polyline clip-path="url(#clip453)" style="stroke:#008000; stroke-linecap:round; stroke-linejoin:round; stroke-width:4; stroke-opacity:1; fill:none" stroke-dasharray="16, 10" points="316.512,1160.89 384.682,1137.35 452.853,1119.42 521.023,1108.12 589.193,1104.43 657.363,1109.03 725.533,1121.14 793.703,1140.14 861.874,1164.4 930.044,1189.6 998.214,1212.68 1066.38,1231.36 1134.55,1244.96 1202.72,1253.02 1270.89,1254.28 1339.07,1248.84 1407.24,1237.5 1475.41,1221.68 1543.58,1203.31 1611.75,1184.27 1679.92,1167.08 1748.09,1153.62 1816.26,1144.71 1884.43,1140.89 1952.6,1142.8 2020.77,1150.73 2088.94,1163.62 2157.11,1179.38 2225.28,1195.42 2293.45,1209.51 "/>
<polyline clip-path="url(#clip453)" style="stroke:#800080; stroke-linecap:round; stroke-linejoin:round; stroke-width:4; stroke-opacity:1; fill:none" points="316.512,1193.39 384.682,1163.92 452.853,1137.93 521.023,1117.53 589.193,1104.68 657.363,1100.79 725.533,1106.14 793.703,1119.71 861.874,1139.45 930.044,1162.86 998.214,1187.5 1066.38,1211.17 1134.55,1231.9 1202.72,1247.91 1270.89,1257.73 1339.07,1260.45 1407.24,1255.99 1475.41,1245.18 1543.58,1229.57 1611.75,1211.05 1679.92,1191.6 1748.09,1173.05 1816.26,1157.06 1884.43,1145.06 1952.6,1138.11 2020.77,1136.78 2088.94,1140.99 2157.11,1149.99 2225.28,1162.59 2293.45,1177.29 "/>
<polyline clip-path="url(#clip453)" style="stroke:#800080; stroke-linecap:round; stroke-linejoin:round; stroke-width:4; stroke-opacity:1; fill:none" stroke-dasharray="16, 10" points="316.512,1193.39 384.682,1169.56 452.853,1148.95 521.023,1133.24 589.193,1123.32 657.363,1119.96 725.533,1123.79 793.703,1134.37 861.874,1151.4 930.044,1172.37 998.214,1193.66 1066.38,1212.76 1134.55,1227.93 1202.72,1238.77 1270.89,1244.37 1339.07,1244.2 1407.24,1238.46 1475.41,1227.97 1543.58,1214.02 1611.75,1198.26 1679.92,1182.19 1748.09,1168.1 1816.26,1157.71 1884.43,1151.57 1952.6,1150.3 2020.77,1154.38 2088.94,1163.38 2157.11,1175.67 2225.28,1189.19 2293.45,1201.91 "/>
</svg>
