<svg xmlns="http://www.w3.org/2000/svg" xmlns:xlink="http://www.w3.org/1999/xlink" width="600" height="400" viewBox="0 0 2400 1600">
<defs>
  <clipPath id="clip570">
    <rect x="0" y="0" width="2400" height="1600"></rect>
  </clipPath>
</defs>
<path clip-path="url(#clip570)" d="M0 1600 L2400 1600 L2400 0 L0 0  Z" fill="#ffffff" fill-rule="evenodd" fill-opacity="1"></path>
<defs>
  <clipPath id="clip571">
    <rect x="480" y="0" width="1681" height="1600"></rect>
  </clipPath>
</defs>
<path clip-path="url(#clip570)" d="M212.459 623.18 L2352.76 623.18 L2352.76 123.472 L212.459 123.472  Z" fill="#ffffff" fill-rule="evenodd" fill-opacity="1"></path>
<defs>
  <clipPath id="clip572">
    <rect x="212" y="123" width="2141" height="501"></rect>
  </clipPath>
</defs>
<polyline clip-path="url(#clip572)" style="stroke:#000000; stroke-linecap:round; stroke-linejoin:round; stroke-width:2; stroke-opacity:0.1; fill:none" points="273.033,623.18 273.033,123.472 "></polyline>
<polyline clip-path="url(#clip572)" style="stroke:#000000; stroke-linecap:round; stroke-linejoin:round; stroke-width:2; stroke-opacity:0.1; fill:none" points="946.083,623.18 946.083,123.472 "></polyline>
<polyline clip-path="url(#clip572)" style="stroke:#000000; stroke-linecap:round; stroke-linejoin:round; stroke-width:2; stroke-opacity:0.1; fill:none" points="1619.13,623.18 1619.13,123.472 "></polyline>
<polyline clip-path="url(#clip572)" style="stroke:#000000; stroke-linecap:round; stroke-linejoin:round; stroke-width:2; stroke-opacity:0.1; fill:none" points="2292.18,623.18 2292.18,123.472 "></polyline>
<polyline clip-path="url(#clip570)" style="stroke:#000000; stroke-linecap:round; stroke-linejoin:round; stroke-width:4; stroke-opacity:1; fill:none" points="212.459,623.18 2352.76,623.18 "></polyline>
<polyline clip-path="url(#clip570)" style="stroke:#000000; stroke-linecap:round; stroke-linejoin:round; stroke-width:4; stroke-opacity:1; fill:none" points="273.033,623.18 273.033,604.282 "></polyline>
<polyline clip-path="url(#clip570)" style="stroke:#000000; stroke-linecap:round; stroke-linejoin:round; stroke-width:4; stroke-opacity:1; fill:none" points="946.083,623.18 946.083,604.282 "></polyline>
<polyline clip-path="url(#clip570)" style="stroke:#000000; stroke-linecap:round; stroke-linejoin:round; stroke-width:4; stroke-opacity:1; fill:none" points="1619.13,623.18 1619.13,604.282 "></polyline>
<polyline clip-path="url(#clip570)" style="stroke:#000000; stroke-linecap:round; stroke-linejoin:round; stroke-width:4; stroke-opacity:1; fill:none" points="2292.18,623.18 2292.18,604.282 "></polyline>
<path clip-path="url(#clip570)" d="M273.033 654.099 Q269.422 654.099 267.594 657.663 Q265.788 661.205 265.788 668.335 Q265.788 675.441 267.594 679.006 Q269.422 682.547 273.033 682.547 Q276.668 682.547 278.473 679.006 Q280.302 675.441 280.302 668.335 Q280.302 661.205 278.473 657.663 Q276.668 654.099 273.033 654.099 M273.033 650.395 Q278.843 650.395 281.899 655.001 Q284.978 659.585 284.978 668.335 Q284.978 677.061 281.899 681.668 Q278.843 686.251 273.033 686.251 Q267.223 686.251 264.145 681.668 Q261.089 677.061 261.089 668.335 Q261.089 659.585 264.145 655.001 Q267.223 650.395 273.033 650.395 Z" fill="#000000" fill-rule="nonzero" fill-opacity="1"></path><path clip-path="url(#clip570)" d="M936.465 681.645 L944.104 681.645 L944.104 655.279 L935.793 656.946 L935.793 652.687 L944.057 651.02 L948.733 651.02 L948.733 681.645 L956.372 681.645 L956.372 685.58 L936.465 685.58 L936.465 681.645 Z" fill="#000000" fill-rule="nonzero" fill-opacity="1"></path><path clip-path="url(#clip570)" d="M1613.78 681.645 L1630.1 681.645 L1630.1 685.58 L1608.16 685.58 L1608.16 681.645 Q1610.82 678.89 1615.41 674.26 Q1620.01 669.608 1621.19 668.265 Q1623.44 665.742 1624.32 664.006 Q1625.22 662.247 1625.22 660.557 Q1625.22 657.802 1623.28 656.066 Q1621.35 654.33 1618.25 654.33 Q1616.05 654.33 1613.6 655.094 Q1611.17 655.858 1608.39 657.409 L1608.39 652.687 Q1611.22 651.552 1613.67 650.974 Q1616.12 650.395 1618.16 650.395 Q1623.53 650.395 1626.72 653.08 Q1629.92 655.765 1629.92 660.256 Q1629.92 662.386 1629.11 664.307 Q1628.32 666.205 1626.22 668.798 Q1625.64 669.469 1622.53 672.686 Q1619.43 675.881 1613.78 681.645 Z" fill="#000000" fill-rule="nonzero" fill-opacity="1"></path><path clip-path="url(#clip570)" d="M2296.43 666.946 Q2299.79 667.663 2301.66 669.932 Q2303.56 672.2 2303.56 675.534 Q2303.56 680.649 2300.04 683.45 Q2296.52 686.251 2290.04 686.251 Q2287.86 686.251 2285.55 685.811 Q2283.26 685.395 2280.8 684.538 L2280.8 680.024 Q2282.75 681.159 2285.06 681.737 Q2287.38 682.316 2289.9 682.316 Q2294.3 682.316 2296.59 680.58 Q2298.91 678.844 2298.91 675.534 Q2298.91 672.478 2296.75 670.765 Q2294.62 669.029 2290.8 669.029 L2286.78 669.029 L2286.78 665.186 L2290.99 665.186 Q2294.44 665.186 2296.27 663.821 Q2298.1 662.432 2298.1 659.839 Q2298.1 657.177 2296.2 655.765 Q2294.32 654.33 2290.8 654.33 Q2288.88 654.33 2286.68 654.747 Q2284.48 655.163 2281.85 656.043 L2281.85 651.876 Q2284.51 651.136 2286.82 650.765 Q2289.16 650.395 2291.22 650.395 Q2296.54 650.395 2299.65 652.825 Q2302.75 655.233 2302.75 659.353 Q2302.75 662.223 2301.11 664.214 Q2299.46 666.182 2296.43 666.946 Z" fill="#000000" fill-rule="nonzero" fill-opacity="1"></path><path clip-path="url(#clip570)" d="M1204.48 720.524 L1244.68 720.524 L1244.68 725.935 L1227.81 725.935 L1227.81 768.044 L1221.35 768.044 L1221.35 725.935 L1204.48 725.935 L1204.48 720.524 Z" fill="#000000" fill-rule="nonzero" fill-opacity="1"></path><path clip-path="url(#clip570)" d="M1248.63 732.396 L1254.49 732.396 L1254.49 768.044 L1248.63 768.044 L1248.63 732.396 M1248.63 718.519 L1254.49 718.519 L1254.49 725.935 L1248.63 725.935 L1248.63 718.519 Z" fill="#000000" fill-rule="nonzero" fill-opacity="1"></path><path clip-path="url(#clip570)" d="M1294.5 739.239 Q1296.69 735.292 1299.75 733.414 Q1302.8 731.537 1306.94 731.537 Q1312.51 731.537 1315.53 735.451 Q1318.56 739.335 1318.56 746.528 L1318.56 768.044 L1312.67 768.044 L1312.67 746.719 Q1312.67 741.594 1310.86 739.112 Q1309.04 736.629 1305.32 736.629 Q1300.77 736.629 1298.12 739.653 Q1295.48 742.677 1295.48 747.896 L1295.48 768.044 L1289.59 768.044 L1289.59 746.719 Q1289.59 741.563 1287.78 739.112 Q1285.97 736.629 1282.18 736.629 Q1277.69 736.629 1275.05 739.685 Q1272.41 742.708 1272.41 747.896 L1272.41 768.044 L1266.52 768.044 L1266.52 732.396 L1272.41 732.396 L1272.41 737.934 Q1274.41 734.656 1277.21 733.096 Q1280.01 731.537 1283.86 731.537 Q1287.75 731.537 1290.45 733.51 Q1293.19 735.483 1294.5 739.239 Z" fill="#000000" fill-rule="nonzero" fill-opacity="1"></path><path clip-path="url(#clip570)" d="M1360.73 748.756 L1360.73 751.62 L1333.8 751.62 Q1334.19 757.668 1337.43 760.851 Q1340.71 764.002 1346.54 764.002 Q1349.91 764.002 1353.06 763.174 Q1356.24 762.347 1359.36 760.691 L1359.36 766.23 Q1356.21 767.566 1352.9 768.267 Q1349.59 768.967 1346.18 768.967 Q1337.65 768.967 1332.66 764.002 Q1327.69 759.036 1327.69 750.57 Q1327.69 741.817 1332.4 736.693 Q1337.15 731.537 1345.17 731.537 Q1352.36 731.537 1356.53 736.183 Q1360.73 740.799 1360.73 748.756 M1354.87 747.037 Q1354.81 742.231 1352.17 739.366 Q1349.56 736.502 1345.23 736.502 Q1340.33 736.502 1337.37 739.271 Q1334.44 742.04 1333.99 747.069 L1354.87 747.037 Z" fill="#000000" fill-rule="nonzero" fill-opacity="1"></path><polyline clip-path="url(#clip572)" style="stroke:#000000; stroke-linecap:round; stroke-linejoin:round; stroke-width:2; stroke-opacity:0.1; fill:none" points="212.459,572.706 2352.76,572.706 "></polyline>
<polyline clip-path="url(#clip572)" style="stroke:#000000; stroke-linecap:round; stroke-linejoin:round; stroke-width:2; stroke-opacity:0.1; fill:none" points="212.459,448.592 2352.76,448.592 "></polyline>
<polyline clip-path="url(#clip572)" style="stroke:#000000; stroke-linecap:round; stroke-linejoin:round; stroke-width:2; stroke-opacity:0.1; fill:none" points="212.459,324.478 2352.76,324.478 "></polyline>
<polyline clip-path="url(#clip572)" style="stroke:#000000; stroke-linecap:round; stroke-linejoin:round; stroke-width:2; stroke-opacity:0.1; fill:none" points="212.459,200.364 2352.76,200.364 "></polyline>
<polyline clip-path="url(#clip570)" style="stroke:#000000; stroke-linecap:round; stroke-linejoin:round; stroke-width:4; stroke-opacity:1; fill:none" points="212.459,623.18 212.459,123.472 "></polyline>
<polyline clip-path="url(#clip570)" style="stroke:#000000; stroke-linecap:round; stroke-linejoin:round; stroke-width:4; stroke-opacity:1; fill:none" points="212.459,572.706 231.357,572.706 "></polyline>
<polyline clip-path="url(#clip570)" style="stroke:#000000; stroke-linecap:round; stroke-linejoin:round; stroke-width:4; stroke-opacity:1; fill:none" points="212.459,448.592 231.357,448.592 "></polyline>
<polyline clip-path="url(#clip570)" style="stroke:#000000; stroke-linecap:round; stroke-linejoin:round; stroke-width:4; stroke-opacity:1; fill:none" points="212.459,324.478 231.357,324.478 "></polyline>
<polyline clip-path="url(#clip570)" style="stroke:#000000; stroke-linecap:round; stroke-linejoin:round; stroke-width:4; stroke-opacity:1; fill:none" points="212.459,200.364 231.357,200.364 "></polyline>
<path clip-path="url(#clip570)" d="M116.343 573.157 L146.019 573.157 L146.019 577.092 L116.343 577.092 L116.343 573.157 Z" fill="#000000" fill-rule="nonzero" fill-opacity="1"></path><path clip-path="url(#clip570)" d="M160.14 586.051 L176.459 586.051 L176.459 589.986 L154.515 589.986 L154.515 586.051 Q157.177 583.296 161.76 578.666 Q166.366 574.014 167.547 572.671 Q169.792 570.148 170.672 568.412 Q171.575 566.652 171.575 564.963 Q171.575 562.208 169.63 560.472 Q167.709 558.736 164.607 558.736 Q162.408 558.736 159.954 559.5 Q157.524 560.264 154.746 561.815 L154.746 557.092 Q157.57 555.958 160.024 555.379 Q162.477 554.801 164.515 554.801 Q169.885 554.801 173.079 557.486 Q176.274 560.171 176.274 564.662 Q176.274 566.791 175.464 568.713 Q174.677 570.611 172.57 573.203 Q171.991 573.875 168.889 577.092 Q165.788 580.287 160.14 586.051 Z" fill="#000000" fill-rule="nonzero" fill-opacity="1"></path><path clip-path="url(#clip570)" d="M115.973 449.043 L145.649 449.043 L145.649 452.978 L115.973 452.978 L115.973 449.043 Z" fill="#000000" fill-rule="nonzero" fill-opacity="1"></path><path clip-path="url(#clip570)" d="M156.552 461.937 L164.19 461.937 L164.19 435.571 L155.88 437.238 L155.88 432.978 L164.144 431.312 L168.82 431.312 L168.82 461.937 L176.459 461.937 L176.459 465.872 L156.552 465.872 L156.552 461.937 Z" fill="#000000" fill-rule="nonzero" fill-opacity="1"></path><path clip-path="url(#clip570)" d="M164.515 310.277 Q160.903 310.277 159.075 313.841 Q157.269 317.383 157.269 324.513 Q157.269 331.619 159.075 335.184 Q160.903 338.726 164.515 338.726 Q168.149 338.726 169.954 335.184 Q171.783 331.619 171.783 324.513 Q171.783 317.383 169.954 313.841 Q168.149 310.277 164.515 310.277 M164.515 306.573 Q170.325 306.573 173.38 311.179 Q176.459 315.763 176.459 324.513 Q176.459 333.239 173.38 337.846 Q170.325 342.429 164.515 342.429 Q158.704 342.429 155.626 337.846 Q152.57 333.239 152.57 324.513 Q152.57 315.763 155.626 311.179 Q158.704 306.573 164.515 306.573 Z" fill="#000000" fill-rule="nonzero" fill-opacity="1"></path><path clip-path="url(#clip570)" d="M156.552 213.709 L164.19 213.709 L164.19 187.343 L155.88 189.01 L155.88 184.751 L164.144 183.084 L168.82 183.084 L168.82 213.709 L176.459 213.709 L176.459 217.644 L156.552 217.644 L156.552 213.709 Z" fill="#000000" fill-rule="nonzero" fill-opacity="1"></path><path clip-path="url(#clip570)" d="M43.1189 363.205 L43.1189 383.479 Q52.6356 383.002 56.6778 380.806 Q61.6431 378.068 61.6431 373.326 Q61.6431 368.552 56.646 365.91 Q52.2536 363.586 43.1189 363.205 M37.708 363.3 Q28.6687 364.191 25.4858 365.91 Q20.4569 368.647 20.4569 373.326 Q20.4569 378.196 25.4222 380.774 Q29.4326 382.811 37.708 383.416 L37.708 363.3 M15.6827 373.326 Q15.6827 365.687 22.4303 361.327 Q29.1461 356.966 41.05 356.966 Q52.922 356.966 59.6697 361.327 Q66.4492 365.687 66.4492 373.326 Q66.4492 380.997 59.6697 385.325 Q52.922 389.686 41.05 389.686 Q29.1461 389.686 22.4303 385.325 Q15.6827 380.997 15.6827 373.326 Z" fill="#000000" fill-rule="nonzero" fill-opacity="1"></path><path clip-path="url(#clip570)" d="M1075.04 43.8146 L1049.23 43.8146 Q1049.84 55.9268 1052.64 61.0714 Q1056.12 67.3908 1062.16 67.3908 Q1068.23 67.3908 1071.6 61.0309 Q1074.55 55.4407 1075.04 43.8146 M1074.92 36.928 Q1073.78 25.4235 1071.6 21.3726 Q1068.11 14.9721 1062.16 14.9721 Q1055.96 14.9721 1052.68 21.2916 Q1050.09 26.3957 1049.32 36.928 L1074.92 36.928 M1062.16 8.89579 Q1071.88 8.89579 1077.43 17.4837 Q1082.98 26.0311 1082.98 41.1815 Q1082.98 56.2914 1077.43 64.8793 Q1071.88 73.5077 1062.16 73.5077 Q1052.39 73.5077 1046.89 64.8793 Q1041.34 56.2914 1041.34 41.1815 Q1041.34 26.0311 1046.89 17.4837 Q1052.39 8.89579 1062.16 8.89579 Z" fill="#000000" fill-rule="nonzero" fill-opacity="1"></path><path clip-path="url(#clip570)" d="M1139.29 32.4315 Q1133.29 32.4315 1129.81 37.1306 Q1126.32 41.7891 1126.32 49.9314 Q1126.32 58.0738 1129.77 62.7728 Q1133.25 67.4314 1139.29 67.4314 Q1145.24 67.4314 1148.73 62.7323 Q1152.21 58.0333 1152.21 49.9314 Q1152.21 41.8701 1148.73 37.1711 Q1145.24 32.4315 1139.29 32.4315 M1139.29 26.1121 Q1149.01 26.1121 1154.56 32.4315 Q1160.11 38.7509 1160.11 49.9314 Q1160.11 61.0714 1154.56 67.4314 Q1149.01 73.7508 1139.29 73.7508 Q1129.52 73.7508 1123.97 67.4314 Q1118.46 61.0714 1118.46 49.9314 Q1118.46 38.7509 1123.97 32.4315 Q1129.52 26.1121 1139.29 26.1121 Z" fill="#000000" fill-rule="nonzero" fill-opacity="1"></path><path clip-path="url(#clip570)" d="M1167.12 27.2059 L1175.02 27.2059 L1189.19 65.2844 L1203.37 27.2059 L1211.27 27.2059 L1194.26 72.576 L1184.13 72.576 L1167.12 27.2059 Z" fill="#000000" fill-rule="nonzero" fill-opacity="1"></path><path clip-path="url(#clip570)" d="M1260.37 48.0275 L1260.37 51.6733 L1226.1 51.6733 Q1226.58 59.3701 1230.72 63.421 Q1234.89 67.4314 1242.3 67.4314 Q1246.59 67.4314 1250.61 66.3781 Q1254.66 65.3249 1258.63 63.2184 L1258.63 70.267 Q1254.62 71.9684 1250.4 72.8596 Q1246.19 73.7508 1241.86 73.7508 Q1231 73.7508 1224.64 67.4314 Q1218.32 61.1119 1218.32 50.3365 Q1218.32 39.1965 1224.31 32.6746 Q1230.35 26.1121 1240.56 26.1121 Q1249.71 26.1121 1255.02 32.0264 Q1260.37 37.9003 1260.37 48.0275 M1252.91 45.84 Q1252.83 39.7232 1249.47 36.0774 Q1246.15 32.4315 1240.64 32.4315 Q1234.4 32.4315 1230.63 35.9558 Q1226.91 39.4801 1226.34 45.8805 L1252.91 45.84 Z" fill="#000000" fill-rule="nonzero" fill-opacity="1"></path><path clip-path="url(#clip570)" d="M1298.89 34.1734 Q1297.64 33.4443 1296.14 33.1202 Q1294.68 32.7556 1292.9 32.7556 Q1286.58 32.7556 1283.17 36.8875 Q1279.81 40.9789 1279.81 48.6757 L1279.81 72.576 L1272.32 72.576 L1272.32 27.2059 L1279.81 27.2059 L1279.81 34.2544 Q1282.16 30.1225 1285.93 28.1376 Q1289.7 26.1121 1295.08 26.1121 Q1295.85 26.1121 1296.79 26.2337 Q1297.72 26.3147 1298.85 26.5172 L1298.89 34.1734 Z" fill="#000000" fill-rule="nonzero" fill-opacity="1"></path><path clip-path="url(#clip570)" d="M1325.02 12.096 L1376.18 12.096 L1376.18 18.9825 L1354.71 18.9825 L1354.71 72.576 L1346.49 72.576 L1346.49 18.9825 L1325.02 18.9825 L1325.02 12.096 Z" fill="#000000" fill-rule="nonzero" fill-opacity="1"></path><path clip-path="url(#clip570)" d="M1381.21 27.2059 L1388.66 27.2059 L1388.66 72.576 L1381.21 72.576 L1381.21 27.2059 M1381.21 9.54393 L1388.66 9.54393 L1388.66 18.9825 L1381.21 18.9825 L1381.21 9.54393 Z" fill="#000000" fill-rule="nonzero" fill-opacity="1"></path><path clip-path="url(#clip570)" d="M1439.58 35.9153 Q1442.38 30.8922 1446.26 28.5022 Q1450.15 26.1121 1455.42 26.1121 Q1462.51 26.1121 1466.36 31.0947 Q1470.2 36.0368 1470.2 45.1919 L1470.2 72.576 L1462.71 72.576 L1462.71 45.4349 Q1462.71 38.913 1460.4 35.7533 Q1458.09 32.5936 1453.35 32.5936 Q1447.56 32.5936 1444.2 36.4419 Q1440.84 40.2903 1440.84 46.9338 L1440.84 72.576 L1433.34 72.576 L1433.34 45.4349 Q1433.34 38.8725 1431.03 35.7533 Q1428.72 32.5936 1423.9 32.5936 Q1418.19 32.5936 1414.83 36.4824 Q1411.47 40.3308 1411.47 46.9338 L1411.47 72.576 L1403.97 72.576 L1403.97 27.2059 L1411.47 27.2059 L1411.47 34.2544 Q1414.02 30.082 1417.58 28.0971 Q1421.15 26.1121 1426.05 26.1121 Q1430.99 26.1121 1434.44 28.6237 Q1437.92 31.1352 1439.58 35.9153 Z" fill="#000000" fill-rule="nonzero" fill-opacity="1"></path><path clip-path="url(#clip570)" d="M1523.88 48.0275 L1523.88 51.6733 L1489.61 51.6733 Q1490.09 59.3701 1494.23 63.421 Q1498.4 67.4314 1505.81 67.4314 Q1510.11 67.4314 1514.12 66.3781 Q1518.17 65.3249 1522.14 63.2184 L1522.14 70.267 Q1518.13 71.9684 1513.91 72.8596 Q1509.7 73.7508 1505.37 73.7508 Q1494.51 73.7508 1488.15 67.4314 Q1481.83 61.1119 1481.83 50.3365 Q1481.83 39.1965 1487.83 32.6746 Q1493.86 26.1121 1504.07 26.1121 Q1513.23 26.1121 1518.53 32.0264 Q1523.88 37.9003 1523.88 48.0275 M1516.43 45.84 Q1516.34 39.7232 1512.98 36.0774 Q1509.66 32.4315 1504.15 32.4315 Q1497.91 32.4315 1494.15 35.9558 Q1490.42 39.4801 1489.85 45.8805 L1516.43 45.84 Z" fill="#000000" fill-rule="nonzero" fill-opacity="1"></path><polyline clip-path="url(#clip572)" style="stroke:#009af9; stroke-linecap:round; stroke-linejoin:round; stroke-width:4; stroke-opacity:1; fill:none" points="273.033,223.196 342.659,226.146 412.285,237.93 481.911,257.208 551.537,282 621.162,309.752 690.788,337.589 760.414,362.701 830.04,382.74 899.666,396.077 969.291,401.873 1038.92,400.009 1108.54,391.036 1178.17,376.08 1247.79,356.799 1317.42,335.254 1387.05,313.704 1456.67,294.333 1526.3,278.96 1595.92,268.874 1665.55,264.757 1735.18,266.672 1804.8,274.157 1874.43,286.226 1944.05,301.503 2013.68,318.327 2083.3,334.922 2152.93,349.625 2222.56,361.056 2292.18,368.252 "></polyline>
<polyline clip-path="url(#clip572)" style="stroke:#e26f46; stroke-linecap:round; stroke-linejoin:round; stroke-width:4; stroke-opacity:1; fill:none" points="273.033,578.901 342.659,572.407 412.285,554.649 481.911,525.603 551.537,485.415 621.162,435.192 690.788,377.827 760.414,318.207 830.04,262.202 899.666,215.005 969.291,179.847 1038.92,158.035 1108.54,149.653 1178.17,154.204 1247.79,170.943 1317.42,198.774 1387.05,235.865 1456.67,279.264 1526.3,324.904 1595.92,368.208 1665.55,405.06 1735.18,432.428 1804.8,448.782 1874.43,453.695 1944.05,447.435 2013.68,430.909 2083.3,405.709 2152.93,374.139 2222.56,339.278 2292.18,304.691 "></polyline>
<polyline clip-path="url(#clip572)" style="stroke:#3da44d; stroke-linecap:round; stroke-linejoin:round; stroke-width:4; stroke-opacity:1; fill:none" points="273.033,609.037 342.659,608.675 412.285,598.723 481.911,579.038 551.537,549.076 621.162,508.344 690.788,457.171 760.414,397.678 830.04,334.32 899.666,273.169 969.291,220.071 1038.92,178.955 1108.54,151.502 1178.17,137.884 1247.79,137.615 1317.42,150.02 1387.05,174.277 1456.67,209.117 1526.3,252.232 1595.92,300.037 1665.55,347.845 1735.18,390.906 1804.8,425.436 1874.43,449.086 1944.05,460.878 2013.68,460.825 2083.3,449.511 2152.93,428.094 2222.56,398.438 2292.18,363.242 "></polyline>
<path clip-path="url(#clip570)" d="M1747.38 606.523 L2281.41 606.523 L2281.41 399.163 L1747.38 399.163  Z" fill="#ffffff" fill-rule="evenodd" fill-opacity="1"></path>
<polyline clip-path="url(#clip570)" style="stroke:#000000; stroke-linecap:round; stroke-linejoin:round; stroke-width:4; stroke-opacity:1; fill:none" points="1747.38,606.523 2281.41,606.523 2281.41,399.163 1747.38,399.163 1747.38,606.523 "></polyline>
<polyline clip-path="url(#clip570)" style="stroke:#009af9; stroke-linecap:round; stroke-linejoin:round; stroke-width:4; stroke-opacity:1; fill:none" points="1771.17,451.003 1913.85,451.003 "></polyline>
<path clip-path="url(#clip570)" d="M1937.63 433.723 L1942.31 433.723 L1942.31 468.283 L1937.63 468.283 L1937.63 433.723 Z" fill="#000000" fill-rule="nonzero" fill-opacity="1"></path><path clip-path="url(#clip570)" d="M1972.98 452.635 L1972.98 468.283 L1968.72 468.283 L1968.72 452.774 Q1968.72 449.093 1967.29 447.265 Q1965.85 445.436 1962.98 445.436 Q1959.53 445.436 1957.54 447.635 Q1955.55 449.834 1955.55 453.63 L1955.55 468.283 L1951.27 468.283 L1951.27 442.357 L1955.55 442.357 L1955.55 446.385 Q1957.08 444.047 1959.14 442.89 Q1961.22 441.732 1963.93 441.732 Q1968.4 441.732 1970.69 444.51 Q1972.98 447.265 1972.98 452.635 Z" fill="#000000" fill-rule="nonzero" fill-opacity="1"></path><path clip-path="url(#clip570)" d="M1981.48 442.357 L1985.73 442.357 L1985.73 468.283 L1981.48 468.283 L1981.48 442.357 M1981.48 432.265 L1985.73 432.265 L1985.73 437.658 L1981.48 437.658 L1981.48 432.265 Z" fill="#000000" fill-rule="nonzero" fill-opacity="1"></path><path clip-path="url(#clip570)" d="M1998.86 434.996 L1998.86 442.357 L2007.63 442.357 L2007.63 445.667 L1998.86 445.667 L1998.86 459.741 Q1998.86 462.913 1999.72 463.815 Q2000.6 464.718 2003.26 464.718 L2007.63 464.718 L2007.63 468.283 L2003.26 468.283 Q1998.33 468.283 1996.45 466.454 Q1994.58 464.602 1994.58 459.741 L1994.58 445.667 L1991.45 445.667 L1991.45 442.357 L1994.58 442.357 L1994.58 434.996 L1998.86 434.996 Z" fill="#000000" fill-rule="nonzero" fill-opacity="1"></path><path clip-path="url(#clip570)" d="M2013.23 442.357 L2017.49 442.357 L2017.49 468.283 L2013.23 468.283 L2013.23 442.357 M2013.23 432.265 L2017.49 432.265 L2017.49 437.658 L2013.23 437.658 L2013.23 432.265 Z" fill="#000000" fill-rule="nonzero" fill-opacity="1"></path><path clip-path="url(#clip570)" d="M2038.19 455.251 Q2033.03 455.251 2031.04 456.431 Q2029.04 457.612 2029.04 460.459 Q2029.04 462.727 2030.53 464.07 Q2032.03 465.389 2034.6 465.389 Q2038.14 465.389 2040.27 462.889 Q2042.42 460.366 2042.42 456.2 L2042.42 455.251 L2038.19 455.251 M2046.68 453.491 L2046.68 468.283 L2042.42 468.283 L2042.42 464.348 Q2040.97 466.709 2038.79 467.843 Q2036.61 468.954 2033.47 468.954 Q2029.48 468.954 2027.12 466.732 Q2024.79 464.487 2024.79 460.737 Q2024.79 456.362 2027.7 454.139 Q2030.64 451.917 2036.45 451.917 L2042.42 451.917 L2042.42 451.501 Q2042.42 448.561 2040.48 446.964 Q2038.56 445.343 2035.06 445.343 Q2032.84 445.343 2030.73 445.876 Q2028.63 446.408 2026.68 447.473 L2026.68 443.538 Q2029.02 442.635 2031.22 442.195 Q2033.42 441.732 2035.5 441.732 Q2041.13 441.732 2043.91 444.649 Q2046.68 447.565 2046.68 453.491 Z" fill="#000000" fill-rule="nonzero" fill-opacity="1"></path><path clip-path="url(#clip570)" d="M2055.46 432.265 L2059.72 432.265 L2059.72 468.283 L2055.46 468.283 L2055.46 432.265 Z" fill="#000000" fill-rule="nonzero" fill-opacity="1"></path><path clip-path="url(#clip570)" d="M2109.76 436.385 L2109.76 441.315 Q2107.4 439.116 2104.72 438.028 Q2102.05 436.94 2099.04 436.94 Q2093.12 436.94 2089.97 440.575 Q2086.82 444.186 2086.82 451.038 Q2086.82 457.866 2089.97 461.501 Q2093.12 465.112 2099.04 465.112 Q2102.05 465.112 2104.72 464.024 Q2107.4 462.936 2109.76 460.737 L2109.76 465.621 Q2107.31 467.288 2104.55 468.121 Q2101.82 468.954 2098.77 468.954 Q2090.92 468.954 2086.41 464.163 Q2081.89 459.348 2081.89 451.038 Q2081.89 442.704 2086.41 437.913 Q2090.92 433.098 2098.77 433.098 Q2101.87 433.098 2104.6 433.931 Q2107.35 434.741 2109.76 436.385 Z" fill="#000000" fill-rule="nonzero" fill-opacity="1"></path><path clip-path="url(#clip570)" d="M2126.85 445.343 Q2123.42 445.343 2121.43 448.028 Q2119.44 450.69 2119.44 455.343 Q2119.44 459.996 2121.41 462.681 Q2123.4 465.343 2126.85 465.343 Q2130.25 465.343 2132.24 462.658 Q2134.23 459.973 2134.23 455.343 Q2134.23 450.737 2132.24 448.052 Q2130.25 445.343 2126.85 445.343 M2126.85 441.732 Q2132.4 441.732 2135.57 445.343 Q2138.74 448.954 2138.74 455.343 Q2138.74 461.709 2135.57 465.343 Q2132.4 468.954 2126.85 468.954 Q2121.27 468.954 2118.1 465.343 Q2114.95 461.709 2114.95 455.343 Q2114.95 448.954 2118.1 445.343 Q2121.27 441.732 2126.85 441.732 Z" fill="#000000" fill-rule="nonzero" fill-opacity="1"></path><path clip-path="url(#clip570)" d="M2167.35 452.635 L2167.35 468.283 L2163.1 468.283 L2163.1 452.774 Q2163.1 449.093 2161.66 447.265 Q2160.22 445.436 2157.35 445.436 Q2153.91 445.436 2151.91 447.635 Q2149.92 449.834 2149.92 453.63 L2149.92 468.283 L2145.64 468.283 L2145.64 442.357 L2149.92 442.357 L2149.92 446.385 Q2151.45 444.047 2153.51 442.89 Q2155.6 441.732 2158.3 441.732 Q2162.77 441.732 2165.06 444.51 Q2167.35 447.265 2167.35 452.635 Z" fill="#000000" fill-rule="nonzero" fill-opacity="1"></path><path clip-path="url(#clip570)" d="M2192.91 446.292 L2192.91 432.265 L2197.17 432.265 L2197.17 468.283 L2192.91 468.283 L2192.91 464.394 Q2191.57 466.709 2189.51 467.843 Q2187.47 468.954 2184.6 468.954 Q2179.9 468.954 2176.94 465.204 Q2174 461.454 2174 455.343 Q2174 449.232 2176.94 445.482 Q2179.9 441.732 2184.6 441.732 Q2187.47 441.732 2189.51 442.866 Q2191.57 443.977 2192.91 446.292 M2178.4 455.343 Q2178.4 460.042 2180.32 462.727 Q2182.26 465.389 2185.64 465.389 Q2189.02 465.389 2190.97 462.727 Q2192.91 460.042 2192.91 455.343 Q2192.91 450.644 2190.97 447.982 Q2189.02 445.297 2185.64 445.297 Q2182.26 445.297 2180.32 447.982 Q2178.4 450.644 2178.4 455.343 Z" fill="#000000" fill-rule="nonzero" fill-opacity="1"></path><path clip-path="url(#clip570)" d="M2206.54 462.403 L2211.43 462.403 L2211.43 468.283 L2206.54 468.283 L2206.54 462.403 Z" fill="#000000" fill-rule="nonzero" fill-opacity="1"></path><path clip-path="url(#clip570)" d="M2237.49 464.348 L2245.13 464.348 L2245.13 437.982 L2236.82 439.649 L2236.82 435.39 L2245.09 433.723 L2249.76 433.723 L2249.76 464.348 L2257.4 464.348 L2257.4 468.283 L2237.49 468.283 L2237.49 464.348 Z" fill="#000000" fill-rule="nonzero" fill-opacity="1"></path><polyline clip-path="url(#clip570)" style="stroke:#e26f46; stroke-linecap:round; stroke-linejoin:round; stroke-width:4; stroke-opacity:1; fill:none" points="1771.17,502.843 1913.85,502.843 "></polyline>
<path clip-path="url(#clip570)" d="M1937.63 485.563 L1942.31 485.563 L1942.31 520.123 L1937.63 520.123 L1937.63 485.563 Z" fill="#000000" fill-rule="nonzero" fill-opacity="1"></path><path clip-path="url(#clip570)" d="M1972.98 504.475 L1972.98 520.123 L1968.72 520.123 L1968.72 504.614 Q1968.72 500.933 1967.29 499.105 Q1965.85 497.276 1962.98 497.276 Q1959.53 497.276 1957.54 499.475 Q1955.55 501.674 1955.55 505.47 L1955.55 520.123 L1951.27 520.123 L1951.27 494.197 L1955.55 494.197 L1955.55 498.225 Q1957.08 495.887 1959.14 494.73 Q1961.22 493.572 1963.93 493.572 Q1968.4 493.572 1970.69 496.35 Q1972.98 499.105 1972.98 504.475 Z" fill="#000000" fill-rule="nonzero" fill-opacity="1"></path><path clip-path="url(#clip570)" d="M1981.48 494.197 L1985.73 494.197 L1985.73 520.123 L1981.48 520.123 L1981.48 494.197 M1981.48 484.105 L1985.73 484.105 L1985.73 489.498 L1981.48 489.498 L1981.48 484.105 Z" fill="#000000" fill-rule="nonzero" fill-opacity="1"></path><path clip-path="url(#clip570)" d="M1998.86 486.836 L1998.86 494.197 L2007.63 494.197 L2007.63 497.507 L1998.86 497.507 L1998.86 511.581 Q1998.86 514.753 1999.72 515.655 Q2000.6 516.558 2003.26 516.558 L2007.63 516.558 L2007.63 520.123 L2003.26 520.123 Q1998.33 520.123 1996.45 518.294 Q1994.58 516.442 1994.58 511.581 L1994.58 497.507 L1991.45 497.507 L1991.45 494.197 L1994.58 494.197 L1994.58 486.836 L1998.86 486.836 Z" fill="#000000" fill-rule="nonzero" fill-opacity="1"></path><path clip-path="url(#clip570)" d="M2013.23 494.197 L2017.49 494.197 L2017.49 520.123 L2013.23 520.123 L2013.23 494.197 M2013.23 484.105 L2017.49 484.105 L2017.49 489.498 L2013.23 489.498 L2013.23 484.105 Z" fill="#000000" fill-rule="nonzero" fill-opacity="1"></path><path clip-path="url(#clip570)" d="M2038.19 507.091 Q2033.03 507.091 2031.04 508.271 Q2029.04 509.452 2029.04 512.299 Q2029.04 514.567 2030.53 515.91 Q2032.03 517.229 2034.6 517.229 Q2038.14 517.229 2040.27 514.729 Q2042.42 512.206 2042.42 508.04 L2042.42 507.091 L2038.19 507.091 M2046.68 505.331 L2046.68 520.123 L2042.42 520.123 L2042.42 516.188 Q2040.97 518.549 2038.79 519.683 Q2036.61 520.794 2033.47 520.794 Q2029.48 520.794 2027.12 518.572 Q2024.79 516.327 2024.79 512.577 Q2024.79 508.202 2027.7 505.979 Q2030.64 503.757 2036.45 503.757 L2042.42 503.757 L2042.42 503.341 Q2042.42 500.401 2040.48 498.804 Q2038.56 497.183 2035.06 497.183 Q2032.84 497.183 2030.73 497.716 Q2028.63 498.248 2026.68 499.313 L2026.68 495.378 Q2029.02 494.475 2031.22 494.035 Q2033.42 493.572 2035.5 493.572 Q2041.13 493.572 2043.91 496.489 Q2046.68 499.405 2046.68 505.331 Z" fill="#000000" fill-rule="nonzero" fill-opacity="1"></path><path clip-path="url(#clip570)" d="M2055.46 484.105 L2059.72 484.105 L2059.72 520.123 L2055.46 520.123 L2055.46 484.105 Z" fill="#000000" fill-rule="nonzero" fill-opacity="1"></path><path clip-path="url(#clip570)" d="M2109.76 488.225 L2109.76 493.155 Q2107.4 490.956 2104.72 489.868 Q2102.05 488.78 2099.04 488.78 Q2093.12 488.78 2089.97 492.415 Q2086.82 496.026 2086.82 502.878 Q2086.82 509.706 2089.97 513.341 Q2093.12 516.952 2099.04 516.952 Q2102.05 516.952 2104.72 515.864 Q2107.4 514.776 2109.76 512.577 L2109.76 517.461 Q2107.31 519.128 2104.55 519.961 Q2101.82 520.794 2098.77 520.794 Q2090.92 520.794 2086.41 516.003 Q2081.89 511.188 2081.89 502.878 Q2081.89 494.544 2086.41 489.753 Q2090.92 484.938 2098.77 484.938 Q2101.87 484.938 2104.6 485.771 Q2107.35 486.581 2109.76 488.225 Z" fill="#000000" fill-rule="nonzero" fill-opacity="1"></path><path clip-path="url(#clip570)" d="M2126.85 497.183 Q2123.42 497.183 2121.43 499.868 Q2119.44 502.53 2119.44 507.183 Q2119.44 511.836 2121.41 514.521 Q2123.4 517.183 2126.85 517.183 Q2130.25 517.183 2132.24 514.498 Q2134.23 511.813 2134.23 507.183 Q2134.23 502.577 2132.24 499.892 Q2130.25 497.183 2126.85 497.183 M2126.85 493.572 Q2132.4 493.572 2135.57 497.183 Q2138.74 500.794 2138.74 507.183 Q2138.74 513.549 2135.57 517.183 Q2132.4 520.794 2126.85 520.794 Q2121.27 520.794 2118.1 517.183 Q2114.95 513.549 2114.95 507.183 Q2114.95 500.794 2118.1 497.183 Q2121.27 493.572 2126.85 493.572 Z" fill="#000000" fill-rule="nonzero" fill-opacity="1"></path><path clip-path="url(#clip570)" d="M2167.35 504.475 L2167.35 520.123 L2163.1 520.123 L2163.1 504.614 Q2163.1 500.933 2161.66 499.105 Q2160.22 497.276 2157.35 497.276 Q2153.91 497.276 2151.91 499.475 Q2149.92 501.674 2149.92 505.47 L2149.92 520.123 L2145.64 520.123 L2145.64 494.197 L2149.92 494.197 L2149.92 498.225 Q2151.45 495.887 2153.51 494.73 Q2155.6 493.572 2158.3 493.572 Q2162.77 493.572 2165.06 496.35 Q2167.35 499.105 2167.35 504.475 Z" fill="#000000" fill-rule="nonzero" fill-opacity="1"></path><path clip-path="url(#clip570)" d="M2192.91 498.132 L2192.91 484.105 L2197.17 484.105 L2197.17 520.123 L2192.91 520.123 L2192.91 516.234 Q2191.57 518.549 2189.51 519.683 Q2187.47 520.794 2184.6 520.794 Q2179.9 520.794 2176.94 517.044 Q2174 513.294 2174 507.183 Q2174 501.072 2176.94 497.322 Q2179.9 493.572 2184.6 493.572 Q2187.47 493.572 2189.51 494.706 Q2191.57 495.817 2192.91 498.132 M2178.4 507.183 Q2178.4 511.882 2180.32 514.567 Q2182.26 517.229 2185.64 517.229 Q2189.02 517.229 2190.97 514.567 Q2192.91 511.882 2192.91 507.183 Q2192.91 502.484 2190.97 499.822 Q2189.02 497.137 2185.64 497.137 Q2182.26 497.137 2180.32 499.822 Q2178.4 502.484 2178.4 507.183 Z" fill="#000000" fill-rule="nonzero" fill-opacity="1"></path><path clip-path="url(#clip570)" d="M2206.54 514.243 L2211.43 514.243 L2211.43 520.123 L2206.54 520.123 L2206.54 514.243 Z" fill="#000000" fill-rule="nonzero" fill-opacity="1"></path><path clip-path="url(#clip570)" d="M2240.71 516.188 L2257.03 516.188 L2257.03 520.123 L2235.09 520.123 L2235.09 516.188 Q2237.75 513.433 2242.33 508.804 Q2246.94 504.151 2248.12 502.808 Q2250.36 500.285 2251.24 498.549 Q2252.15 496.79 2252.15 495.1 Q2252.15 492.345 2250.2 490.609 Q2248.28 488.873 2245.18 488.873 Q2242.98 488.873 2240.53 489.637 Q2238.09 490.401 2235.32 491.952 L2235.32 487.23 Q2238.14 486.095 2240.59 485.517 Q2243.05 484.938 2245.09 484.938 Q2250.46 484.938 2253.65 487.623 Q2256.84 490.308 2256.84 494.799 Q2256.84 496.929 2256.03 498.85 Q2255.25 500.748 2253.14 503.341 Q2252.56 504.012 2249.46 507.229 Q2246.36 510.424 2240.71 516.188 Z" fill="#000000" fill-rule="nonzero" fill-opacity="1"></path><polyline clip-path="url(#clip570)" style="stroke:#3da44d; stroke-linecap:round; stroke-linejoin:round; stroke-width:4; stroke-opacity:1; fill:none" points="1771.17,554.683 1913.85,554.683 "></polyline>
<path clip-path="url(#clip570)" d="M1937.63 537.403 L1942.31 537.403 L1942.31 571.963 L1937.63 571.963 L1937.63 537.403 Z" fill="#000000" fill-rule="nonzero" fill-opacity="1"></path><path clip-path="url(#clip570)" d="M1972.98 556.315 L1972.98 571.963 L1968.72 571.963 L1968.72 556.454 Q1968.72 552.773 1967.29 550.945 Q1965.85 549.116 1962.98 549.116 Q1959.53 549.116 1957.54 551.315 Q1955.55 553.514 1955.55 557.31 L1955.55 571.963 L1951.27 571.963 L1951.27 546.037 L1955.55 546.037 L1955.55 550.065 Q1957.08 547.727 1959.14 546.57 Q1961.22 545.412 1963.93 545.412 Q1968.4 545.412 1970.69 548.19 Q1972.98 550.945 1972.98 556.315 Z" fill="#000000" fill-rule="nonzero" fill-opacity="1"></path><path clip-path="url(#clip570)" d="M1981.48 546.037 L1985.73 546.037 L1985.73 571.963 L1981.48 571.963 L1981.48 546.037 M1981.48 535.945 L1985.73 535.945 L1985.73 541.338 L1981.48 541.338 L1981.48 535.945 Z" fill="#000000" fill-rule="nonzero" fill-opacity="1"></path><path clip-path="url(#clip570)" d="M1998.86 538.676 L1998.86 546.037 L2007.63 546.037 L2007.63 549.347 L1998.86 549.347 L1998.86 563.421 Q1998.86 566.593 1999.72 567.495 Q2000.6 568.398 2003.26 568.398 L2007.63 568.398 L2007.63 571.963 L2003.26 571.963 Q1998.33 571.963 1996.45 570.134 Q1994.58 568.282 1994.58 563.421 L1994.58 549.347 L1991.45 549.347 L1991.45 546.037 L1994.58 546.037 L1994.58 538.676 L1998.86 538.676 Z" fill="#000000" fill-rule="nonzero" fill-opacity="1"></path><path clip-path="url(#clip570)" d="M2013.23 546.037 L2017.49 546.037 L2017.49 571.963 L2013.23 571.963 L2013.23 546.037 M2013.23 535.945 L2017.49 535.945 L2017.49 541.338 L2013.23 541.338 L2013.23 535.945 Z" fill="#000000" fill-rule="nonzero" fill-opacity="1"></path><path clip-path="url(#clip570)" d="M2038.19 558.931 Q2033.03 558.931 2031.04 560.111 Q2029.04 561.292 2029.04 564.139 Q2029.04 566.407 2030.53 567.75 Q2032.03 569.069 2034.6 569.069 Q2038.14 569.069 2040.27 566.569 Q2042.42 564.046 2042.42 559.88 L2042.42 558.931 L2038.19 558.931 M2046.68 557.171 L2046.68 571.963 L2042.42 571.963 L2042.42 568.028 Q2040.97 570.389 2038.79 571.523 Q2036.61 572.634 2033.47 572.634 Q2029.48 572.634 2027.12 570.412 Q2024.79 568.167 2024.79 564.417 Q2024.79 560.042 2027.7 557.819 Q2030.64 555.597 2036.45 555.597 L2042.42 555.597 L2042.42 555.181 Q2042.42 552.241 2040.48 550.644 Q2038.56 549.023 2035.06 549.023 Q2032.84 549.023 2030.73 549.556 Q2028.63 550.088 2026.68 551.153 L2026.68 547.218 Q2029.02 546.315 2031.22 545.875 Q2033.42 545.412 2035.5 545.412 Q2041.13 545.412 2043.91 548.329 Q2046.68 551.245 2046.68 557.171 Z" fill="#000000" fill-rule="nonzero" fill-opacity="1"></path><path clip-path="url(#clip570)" d="M2055.46 535.945 L2059.72 535.945 L2059.72 571.963 L2055.46 571.963 L2055.46 535.945 Z" fill="#000000" fill-rule="nonzero" fill-opacity="1"></path><path clip-path="url(#clip570)" d="M2109.76 540.065 L2109.76 544.995 Q2107.4 542.796 2104.72 541.708 Q2102.05 540.62 2099.04 540.62 Q2093.12 540.62 2089.97 544.255 Q2086.82 547.866 2086.82 554.718 Q2086.82 561.546 2089.97 565.181 Q2093.12 568.792 2099.04 568.792 Q2102.05 568.792 2104.72 567.704 Q2107.4 566.616 2109.76 564.417 L2109.76 569.301 Q2107.31 570.968 2104.55 571.801 Q2101.82 572.634 2098.77 572.634 Q2090.92 572.634 2086.41 567.843 Q2081.89 563.028 2081.89 554.718 Q2081.89 546.384 2086.41 541.593 Q2090.92 536.778 2098.77 536.778 Q2101.87 536.778 2104.6 537.611 Q2107.35 538.421 2109.76 540.065 Z" fill="#000000" fill-rule="nonzero" fill-opacity="1"></path><path clip-path="url(#clip570)" d="M2126.85 549.023 Q2123.42 549.023 2121.43 551.708 Q2119.44 554.37 2119.44 559.023 Q2119.44 563.676 2121.41 566.361 Q2123.4 569.023 2126.85 569.023 Q2130.25 569.023 2132.24 566.338 Q2134.23 563.653 2134.23 559.023 Q2134.23 554.417 2132.24 551.732 Q2130.25 549.023 2126.85 549.023 M2126.85 545.412 Q2132.4 545.412 2135.57 549.023 Q2138.74 552.634 2138.74 559.023 Q2138.74 565.389 2135.57 569.023 Q2132.4 572.634 2126.85 572.634 Q2121.27 572.634 2118.1 569.023 Q2114.95 565.389 2114.95 559.023 Q2114.95 552.634 2118.1 549.023 Q2121.27 545.412 2126.85 545.412 Z" fill="#000000" fill-rule="nonzero" fill-opacity="1"></path><path clip-path="url(#clip570)" d="M2167.35 556.315 L2167.35 571.963 L2163.1 571.963 L2163.1 556.454 Q2163.1 552.773 2161.66 550.945 Q2160.22 549.116 2157.35 549.116 Q2153.91 549.116 2151.91 551.315 Q2149.92 553.514 2149.92 557.31 L2149.92 571.963 L2145.64 571.963 L2145.64 546.037 L2149.92 546.037 L2149.92 550.065 Q2151.45 547.727 2153.51 546.57 Q2155.6 545.412 2158.3 545.412 Q2162.77 545.412 2165.06 548.19 Q2167.35 550.945 2167.35 556.315 Z" fill="#000000" fill-rule="nonzero" fill-opacity="1"></path><path clip-path="url(#clip570)" d="M2192.91 549.972 L2192.91 535.945 L2197.17 535.945 L2197.17 571.963 L2192.91 571.963 L2192.91 568.074 Q2191.57 570.389 2189.51 571.523 Q2187.47 572.634 2184.6 572.634 Q2179.9 572.634 2176.94 568.884 Q2174 565.134 2174 559.023 Q2174 552.912 2176.94 549.162 Q2179.9 545.412 2184.6 545.412 Q2187.47 545.412 2189.51 546.546 Q2191.57 547.657 2192.91 549.972 M2178.4 559.023 Q2178.4 563.722 2180.32 566.407 Q2182.26 569.069 2185.64 569.069 Q2189.02 569.069 2190.97 566.407 Q2192.91 563.722 2192.91 559.023 Q2192.91 554.324 2190.97 551.662 Q2189.02 548.977 2185.64 548.977 Q2182.26 548.977 2180.32 551.662 Q2178.4 554.324 2178.4 559.023 Z" fill="#000000" fill-rule="nonzero" fill-opacity="1"></path><path clip-path="url(#clip570)" d="M2206.54 566.083 L2211.43 566.083 L2211.43 571.963 L2206.54 571.963 L2206.54 566.083 Z" fill="#000000" fill-rule="nonzero" fill-opacity="1"></path><path clip-path="url(#clip570)" d="M2236.73 537.403 L2255.09 537.403 L2255.09 541.338 L2241.01 541.338 L2241.01 549.81 Q2242.03 549.463 2243.05 549.301 Q2244.07 549.116 2245.09 549.116 Q2250.87 549.116 2254.25 552.287 Q2257.63 555.458 2257.63 560.875 Q2257.63 566.454 2254.16 569.556 Q2250.69 572.634 2244.37 572.634 Q2242.19 572.634 2239.92 572.264 Q2237.68 571.893 2235.27 571.153 L2235.27 566.454 Q2237.35 567.588 2239.58 568.143 Q2241.8 568.699 2244.28 568.699 Q2248.28 568.699 2250.62 566.593 Q2252.96 564.486 2252.96 560.875 Q2252.96 557.264 2250.62 555.157 Q2248.28 553.051 2244.28 553.051 Q2242.4 553.051 2240.53 553.468 Q2238.67 553.884 2236.73 554.764 L2236.73 537.403 Z" fill="#000000" fill-rule="nonzero" fill-opacity="1"></path><path clip-path="url(#clip570)" d="M212.459 1423.18 L2352.76 1423.18 L2352.76 923.472 L212.459 923.472  Z" fill="#ffffff" fill-rule="evenodd" fill-opacity="1"></path>
<defs>
  <clipPath id="clip573">
    <rect x="212" y="923" width="2141" height="501"></rect>
  </clipPath>
</defs>
<polyline clip-path="url(#clip573)" style="stroke:#000000; stroke-linecap:round; stroke-linejoin:round; stroke-width:2; stroke-opacity:0.1; fill:none" points="273.033,1423.18 273.033,923.472 "></polyline>
<polyline clip-path="url(#clip573)" style="stroke:#000000; stroke-linecap:round; stroke-linejoin:round; stroke-width:2; stroke-opacity:0.1; fill:none" points="946.083,1423.18 946.083,923.472 "></polyline>
<polyline clip-path="url(#clip573)" style="stroke:#000000; stroke-linecap:round; stroke-linejoin:round; stroke-width:2; stroke-opacity:0.1; fill:none" points="1619.13,1423.18 1619.13,923.472 "></polyline>
<polyline clip-path="url(#clip573)" style="stroke:#000000; stroke-linecap:round; stroke-linejoin:round; stroke-width:2; stroke-opacity:0.1; fill:none" points="2292.18,1423.18 2292.18,923.472 "></polyline>
<polyline clip-path="url(#clip570)" style="stroke:#000000; stroke-linecap:round; stroke-linejoin:round; stroke-width:4; stroke-opacity:1; fill:none" points="212.459,1423.18 2352.76,1423.18 "></polyline>
<polyline clip-path="url(#clip570)" style="stroke:#000000; stroke-linecap:round; stroke-linejoin:round; stroke-width:4; stroke-opacity:1; fill:none" points="273.033,1423.18 273.033,1404.28 "></polyline>
<polyline clip-path="url(#clip570)" style="stroke:#000000; stroke-linecap:round; stroke-linejoin:round; stroke-width:4; stroke-opacity:1; fill:none" points="946.083,1423.18 946.083,1404.28 "></polyline>
<polyline clip-path="url(#clip570)" style="stroke:#000000; stroke-linecap:round; stroke-linejoin:round; stroke-width:4; stroke-opacity:1; fill:none" points="1619.13,1423.18 1619.13,1404.28 "></polyline>
<polyline clip-path="url(#clip570)" style="stroke:#000000; stroke-linecap:round; stroke-linejoin:round; stroke-width:4; stroke-opacity:1; fill:none" points="2292.18,1423.18 2292.18,1404.28 "></polyline>
<path clip-path="url(#clip570)" d="M273.033 1454.1 Q269.422 1454.1 267.594 1457.66 Q265.788 1461.2 265.788 1468.33 Q265.788 1475.44 267.594 1479.01 Q269.422 1482.55 273.033 1482.55 Q276.668 1482.55 278.473 1479.01 Q280.302 1475.44 280.302 1468.33 Q280.302 1461.2 278.473 1457.66 Q276.668 1454.1 273.033 1454.1 M273.033 1450.39 Q278.843 1450.39 281.899 1455 Q284.978 1459.58 284.978 1468.33 Q284.978 1477.06 281.899 1481.67 Q278.843 1486.25 273.033 1486.25 Q267.223 1486.25 264.145 1481.67 Q261.089 1477.06 261.089 1468.33 Q261.089 1459.58 264.145 1455 Q267.223 1450.39 273.033 1450.39 Z" fill="#000000" fill-rule="nonzero" fill-opacity="1"></path><path clip-path="url(#clip570)" d="M936.465 1481.64 L944.104 1481.64 L944.104 1455.28 L935.793 1456.95 L935.793 1452.69 L944.057 1451.02 L948.733 1451.02 L948.733 1481.64 L956.372 1481.64 L956.372 1485.58 L936.465 1485.58 L936.465 1481.64 Z" fill="#000000" fill-rule="nonzero" fill-opacity="1"></path><path clip-path="url(#clip570)" d="M1613.78 1481.64 L1630.1 1481.64 L1630.1 1485.58 L1608.16 1485.58 L1608.16 1481.64 Q1610.82 1478.89 1615.41 1474.26 Q1620.01 1469.61 1621.19 1468.27 Q1623.44 1465.74 1624.32 1464.01 Q1625.22 1462.25 1625.22 1460.56 Q1625.22 1457.8 1623.28 1456.07 Q1621.35 1454.33 1618.25 1454.33 Q1616.05 1454.33 1613.6 1455.09 Q1611.17 1455.86 1608.39 1457.41 L1608.39 1452.69 Q1611.22 1451.55 1613.67 1450.97 Q1616.12 1450.39 1618.16 1450.39 Q1623.53 1450.39 1626.72 1453.08 Q1629.92 1455.77 1629.92 1460.26 Q1629.92 1462.39 1629.11 1464.31 Q1628.32 1466.2 1626.22 1468.8 Q1625.64 1469.47 1622.53 1472.69 Q1619.43 1475.88 1613.78 1481.64 Z" fill="#000000" fill-rule="nonzero" fill-opacity="1"></path><path clip-path="url(#clip570)" d="M2296.43 1466.95 Q2299.79 1467.66 2301.66 1469.93 Q2303.56 1472.2 2303.56 1475.53 Q2303.56 1480.65 2300.04 1483.45 Q2296.52 1486.25 2290.04 1486.25 Q2287.86 1486.25 2285.55 1485.81 Q2283.26 1485.39 2280.8 1484.54 L2280.8 1480.02 Q2282.75 1481.16 2285.06 1481.74 Q2287.38 1482.32 2289.9 1482.32 Q2294.3 1482.32 2296.59 1480.58 Q2298.91 1478.84 2298.91 1475.53 Q2298.91 1472.48 2296.75 1470.77 Q2294.62 1469.03 2290.8 1469.03 L2286.78 1469.03 L2286.78 1465.19 L2290.99 1465.19 Q2294.44 1465.19 2296.27 1463.82 Q2298.1 1462.43 2298.1 1459.84 Q2298.1 1457.18 2296.2 1455.77 Q2294.32 1454.33 2290.8 1454.33 Q2288.88 1454.33 2286.68 1454.75 Q2284.48 1455.16 2281.85 1456.04 L2281.85 1451.88 Q2284.51 1451.14 2286.82 1450.77 Q2289.16 1450.39 2291.22 1450.39 Q2296.54 1450.39 2299.65 1452.83 Q2302.75 1455.23 2302.75 1459.35 Q2302.75 1462.22 2301.11 1464.21 Q2299.46 1466.18 2296.43 1466.95 Z" fill="#000000" fill-rule="nonzero" fill-opacity="1"></path><path clip-path="url(#clip570)" d="M1204.48 1520.52 L1244.68 1520.52 L1244.68 1525.93 L1227.81 1525.93 L1227.81 1568.04 L1221.35 1568.04 L1221.35 1525.93 L1204.48 1525.93 L1204.48 1520.52 Z" fill="#000000" fill-rule="nonzero" fill-opacity="1"></path><path clip-path="url(#clip570)" d="M1248.63 1532.4 L1254.49 1532.4 L1254.49 1568.04 L1248.63 1568.04 L1248.63 1532.4 M1248.63 1518.52 L1254.49 1518.52 L1254.49 1525.93 L1248.63 1525.93 L1248.63 1518.52 Z" fill="#000000" fill-rule="nonzero" fill-opacity="1"></path><path clip-path="url(#clip570)" d="M1294.5 1539.24 Q1296.69 1535.29 1299.75 1533.41 Q1302.8 1531.54 1306.94 1531.54 Q1312.51 1531.54 1315.53 1535.45 Q1318.56 1539.33 1318.56 1546.53 L1318.56 1568.04 L1312.67 1568.04 L1312.67 1546.72 Q1312.67 1541.59 1310.86 1539.11 Q1309.04 1536.63 1305.32 1536.63 Q1300.77 1536.63 1298.12 1539.65 Q1295.48 1542.68 1295.48 1547.9 L1295.48 1568.04 L1289.59 1568.04 L1289.59 1546.72 Q1289.59 1541.56 1287.78 1539.11 Q1285.97 1536.63 1282.18 1536.63 Q1277.69 1536.63 1275.05 1539.68 Q1272.41 1542.71 1272.41 1547.9 L1272.41 1568.04 L1266.52 1568.04 L1266.52 1532.4 L1272.41 1532.4 L1272.41 1537.93 Q1274.41 1534.66 1277.21 1533.1 Q1280.01 1531.54 1283.86 1531.54 Q1287.75 1531.54 1290.45 1533.51 Q1293.19 1535.48 1294.5 1539.24 Z" fill="#000000" fill-rule="nonzero" fill-opacity="1"></path><path clip-path="url(#clip570)" d="M1360.73 1548.76 L1360.73 1551.62 L1333.8 1551.62 Q1334.19 1557.67 1337.43 1560.85 Q1340.71 1564 1346.54 1564 Q1349.91 1564 1353.06 1563.17 Q1356.24 1562.35 1359.36 1560.69 L1359.36 1566.23 Q1356.21 1567.57 1352.9 1568.27 Q1349.59 1568.97 1346.18 1568.97 Q1337.65 1568.97 1332.66 1564 Q1327.69 1559.04 1327.69 1550.57 Q1327.69 1541.82 1332.4 1536.69 Q1337.15 1531.54 1345.17 1531.54 Q1352.36 1531.54 1356.53 1536.18 Q1360.73 1540.8 1360.73 1548.76 M1354.87 1547.04 Q1354.81 1542.23 1352.17 1539.37 Q1349.56 1536.5 1345.23 1536.5 Q1340.33 1536.5 1337.37 1539.27 Q1334.44 1542.04 1333.99 1547.07 L1354.87 1547.04 Z" fill="#000000" fill-rule="nonzero" fill-opacity="1"></path><polyline clip-path="url(#clip573)" style="stroke:#000000; stroke-linecap:round; stroke-linejoin:round; stroke-width:2; stroke-opacity:0.1; fill:none" points="212.459,1420.55 2352.76,1420.55 "></polyline>
<polyline clip-path="url(#clip573)" style="stroke:#000000; stroke-linecap:round; stroke-linejoin:round; stroke-width:2; stroke-opacity:0.1; fill:none" points="212.459,1312.42 2352.76,1312.42 "></polyline>
<polyline clip-path="url(#clip573)" style="stroke:#000000; stroke-linecap:round; stroke-linejoin:round; stroke-width:2; stroke-opacity:0.1; fill:none" points="212.459,1204.29 2352.76,1204.29 "></polyline>
<polyline clip-path="url(#clip573)" style="stroke:#000000; stroke-linecap:round; stroke-linejoin:round; stroke-width:2; stroke-opacity:0.1; fill:none" points="212.459,1096.15 2352.76,1096.15 "></polyline>
<polyline clip-path="url(#clip573)" style="stroke:#000000; stroke-linecap:round; stroke-linejoin:round; stroke-width:2; stroke-opacity:0.1; fill:none" points="212.459,988.018 2352.76,988.018 "></polyline>
<polyline clip-path="url(#clip570)" style="stroke:#000000; stroke-linecap:round; stroke-linejoin:round; stroke-width:4; stroke-opacity:1; fill:none" points="212.459,1423.18 212.459,923.472 "></polyline>
<polyline clip-path="url(#clip570)" style="stroke:#000000; stroke-linecap:round; stroke-linejoin:round; stroke-width:4; stroke-opacity:1; fill:none" points="212.459,1420.55 231.357,1420.55 "></polyline>
<polyline clip-path="url(#clip570)" style="stroke:#000000; stroke-linecap:round; stroke-linejoin:round; stroke-width:4; stroke-opacity:1; fill:none" points="212.459,1312.42 231.357,1312.42 "></polyline>
<polyline clip-path="url(#clip570)" style="stroke:#000000; stroke-linecap:round; stroke-linejoin:round; stroke-width:4; stroke-opacity:1; fill:none" points="212.459,1204.29 231.357,1204.29 "></polyline>
<polyline clip-path="url(#clip570)" style="stroke:#000000; stroke-linecap:round; stroke-linejoin:round; stroke-width:4; stroke-opacity:1; fill:none" points="212.459,1096.15 231.357,1096.15 "></polyline>
<polyline clip-path="url(#clip570)" style="stroke:#000000; stroke-linecap:round; stroke-linejoin:round; stroke-width:4; stroke-opacity:1; fill:none" points="212.459,988.018 231.357,988.018 "></polyline>
<path clip-path="url(#clip570)" d="M114.26 1421 L143.936 1421 L143.936 1424.94 L114.26 1424.94 L114.26 1421 Z" fill="#000000" fill-rule="nonzero" fill-opacity="1"></path><path clip-path="url(#clip570)" d="M166.876 1407.35 L155.07 1425.8 L166.876 1425.8 L166.876 1407.35 M165.649 1403.27 L171.528 1403.27 L171.528 1425.8 L176.459 1425.8 L176.459 1429.68 L171.528 1429.68 L171.528 1437.83 L166.876 1437.83 L166.876 1429.68 L151.274 1429.68 L151.274 1425.17 L165.649 1403.27 Z" fill="#000000" fill-rule="nonzero" fill-opacity="1"></path><path clip-path="url(#clip570)" d="M116.343 1312.87 L146.019 1312.87 L146.019 1316.81 L116.343 1316.81 L116.343 1312.87 Z" fill="#000000" fill-rule="nonzero" fill-opacity="1"></path><path clip-path="url(#clip570)" d="M160.14 1325.76 L176.459 1325.76 L176.459 1329.7 L154.515 1329.7 L154.515 1325.76 Q157.177 1323.01 161.76 1318.38 Q166.366 1313.73 167.547 1312.38 Q169.792 1309.86 170.672 1308.13 Q171.575 1306.37 171.575 1304.68 Q171.575 1301.92 169.63 1300.19 Q167.709 1298.45 164.607 1298.45 Q162.408 1298.45 159.954 1299.21 Q157.524 1299.98 154.746 1301.53 L154.746 1296.81 Q157.57 1295.67 160.024 1295.09 Q162.477 1294.51 164.515 1294.51 Q169.885 1294.51 173.079 1297.2 Q176.274 1299.88 176.274 1304.38 Q176.274 1306.5 175.464 1308.43 Q174.677 1310.32 172.57 1312.92 Q171.991 1313.59 168.889 1316.81 Q165.788 1320 160.14 1325.76 Z" fill="#000000" fill-rule="nonzero" fill-opacity="1"></path><path clip-path="url(#clip570)" d="M164.515 1190.08 Q160.903 1190.08 159.075 1193.65 Q157.269 1197.19 157.269 1204.32 Q157.269 1211.43 159.075 1214.99 Q160.903 1218.53 164.515 1218.53 Q168.149 1218.53 169.954 1214.99 Q171.783 1211.43 171.783 1204.32 Q171.783 1197.19 169.954 1193.65 Q168.149 1190.08 164.515 1190.08 M164.515 1186.38 Q170.325 1186.38 173.38 1190.99 Q176.459 1195.57 176.459 1204.32 Q176.459 1213.05 173.38 1217.65 Q170.325 1222.24 164.515 1222.24 Q158.704 1222.24 155.626 1217.65 Q152.57 1213.05 152.57 1204.32 Q152.57 1195.57 155.626 1190.99 Q158.704 1186.38 164.515 1186.38 Z" fill="#000000" fill-rule="nonzero" fill-opacity="1"></path><path clip-path="url(#clip570)" d="M160.14 1109.5 L176.459 1109.5 L176.459 1113.43 L154.515 1113.43 L154.515 1109.5 Q157.177 1106.74 161.76 1102.11 Q166.366 1097.46 167.547 1096.12 Q169.792 1093.59 170.672 1091.86 Q171.575 1090.1 171.575 1088.41 Q171.575 1085.65 169.63 1083.92 Q167.709 1082.18 164.607 1082.18 Q162.408 1082.18 159.954 1082.95 Q157.524 1083.71 154.746 1085.26 L154.746 1080.54 Q157.57 1079.4 160.024 1078.83 Q162.477 1078.25 164.515 1078.25 Q169.885 1078.25 173.079 1080.93 Q176.274 1083.62 176.274 1088.11 Q176.274 1090.24 175.464 1092.16 Q174.677 1094.06 172.57 1096.65 Q171.991 1097.32 168.889 1100.54 Q165.788 1103.73 160.14 1109.5 Z" fill="#000000" fill-rule="nonzero" fill-opacity="1"></path><path clip-path="url(#clip570)" d="M166.876 974.812 L155.07 993.261 L166.876 993.261 L166.876 974.812 M165.649 970.738 L171.528 970.738 L171.528 993.261 L176.459 993.261 L176.459 997.149 L171.528 997.149 L171.528 1005.3 L166.876 1005.3 L166.876 997.149 L151.274 997.149 L151.274 992.636 L165.649 970.738 Z" fill="#000000" fill-rule="nonzero" fill-opacity="1"></path><path clip-path="url(#clip570)" d="M64.9272 1183.03 Q64.9272 1196.24 46.021 1196.24 Q38.5413 1196.24 28.3562 1191.31 L28.3562 1185.01 Q38.5413 1189.56 46.1802 1189.56 Q59.9619 1189.56 59.9619 1182.49 Q59.9619 1176.03 42.8382 1176.03 L42.8382 1170.62 Q59.9619 1170.62 59.9619 1164.16 Q59.9619 1157.09 46.1802 1157.09 Q38.5413 1157.09 28.3562 1161.64 L28.3562 1155.34 Q38.5413 1150.41 46.021 1150.41 Q64.9272 1150.41 64.9272 1163.62 Q64.9272 1172.28 55.4105 1173.33 Q64.9272 1174.63 64.9272 1183.03 Z" fill="#000000" fill-rule="nonzero" fill-opacity="1"></path><path clip-path="url(#clip570)" d="M1049.23 873.751 Q1032.42 873.751 1032.42 849.688 Q1032.42 840.169 1038.7 827.206 L1046.72 827.206 Q1040.93 840.169 1040.93 849.891 Q1040.93 867.431 1049.92 867.431 Q1058.15 867.431 1058.15 845.637 L1065.03 845.637 Q1065.03 867.431 1073.26 867.431 Q1082.25 867.431 1082.25 849.891 Q1082.25 840.169 1076.46 827.206 L1084.48 827.206 Q1090.76 840.169 1090.76 849.688 Q1090.76 873.751 1073.95 873.751 Q1062.93 873.751 1061.59 861.639 Q1059.93 873.751 1049.23 873.751 Z" fill="#000000" fill-rule="nonzero" fill-opacity="1"></path><path clip-path="url(#clip570)" d="M1148.2 832.432 Q1142.2 832.432 1138.72 837.131 Q1135.24 841.789 1135.24 849.931 Q1135.24 858.074 1138.68 862.773 Q1142.16 867.431 1148.2 867.431 Q1154.15 867.431 1157.64 862.732 Q1161.12 858.033 1161.12 849.931 Q1161.12 841.87 1157.64 837.171 Q1154.15 832.432 1148.2 832.432 M1148.2 826.112 Q1157.92 826.112 1163.47 832.432 Q1169.02 838.751 1169.02 849.931 Q1169.02 861.071 1163.47 867.431 Q1157.92 873.751 1148.2 873.751 Q1138.44 873.751 1132.89 867.431 Q1127.38 861.071 1127.38 849.931 Q1127.38 838.751 1132.89 832.432 Q1138.44 826.112 1148.2 826.112 Z" fill="#000000" fill-rule="nonzero" fill-opacity="1"></path><path clip-path="url(#clip570)" d="M1176.03 827.206 L1183.93 827.206 L1198.11 865.284 L1212.28 827.206 L1220.18 827.206 L1203.17 872.576 L1193.04 872.576 L1176.03 827.206 Z" fill="#000000" fill-rule="nonzero" fill-opacity="1"></path><path clip-path="url(#clip570)" d="M1269.28 848.028 L1269.28 851.673 L1235.01 851.673 Q1235.5 859.37 1239.63 863.421 Q1243.8 867.431 1251.21 867.431 Q1255.51 867.431 1259.52 866.378 Q1263.57 865.325 1267.54 863.218 L1267.54 870.267 Q1263.53 871.968 1259.31 872.86 Q1255.1 873.751 1250.77 873.751 Q1239.91 873.751 1233.55 867.431 Q1227.23 861.112 1227.23 850.337 Q1227.23 839.197 1233.23 832.675 Q1239.26 826.112 1249.47 826.112 Q1258.63 826.112 1263.93 832.026 Q1269.28 837.9 1269.28 848.028 M1261.83 845.84 Q1261.75 839.723 1258.38 836.077 Q1255.06 832.432 1249.55 832.432 Q1243.31 832.432 1239.55 835.956 Q1235.82 839.48 1235.25 845.881 L1261.83 845.84 Z" fill="#000000" fill-rule="nonzero" fill-opacity="1"></path><path clip-path="url(#clip570)" d="M1307.8 834.173 Q1306.55 833.444 1305.05 833.12 Q1303.59 832.756 1301.81 832.756 Q1295.49 832.756 1292.09 836.888 Q1288.72 840.979 1288.72 848.676 L1288.72 872.576 L1281.23 872.576 L1281.23 827.206 L1288.72 827.206 L1288.72 834.254 Q1291.07 830.123 1294.84 828.138 Q1298.61 826.112 1304 826.112 Q1304.77 826.112 1305.7 826.234 Q1306.63 826.315 1307.76 826.517 L1307.8 834.173 Z" fill="#000000" fill-rule="nonzero" fill-opacity="1"></path><path clip-path="url(#clip570)" d="M1333.93 812.096 L1385.1 812.096 L1385.1 818.983 L1363.63 818.983 L1363.63 872.576 L1355.4 872.576 L1355.4 818.983 L1333.93 818.983 L1333.93 812.096 Z" fill="#000000" fill-rule="nonzero" fill-opacity="1"></path><path clip-path="url(#clip570)" d="M1390.12 827.206 L1397.57 827.206 L1397.57 872.576 L1390.12 872.576 L1390.12 827.206 M1390.12 809.544 L1397.57 809.544 L1397.57 818.983 L1390.12 818.983 L1390.12 809.544 Z" fill="#000000" fill-rule="nonzero" fill-opacity="1"></path><path clip-path="url(#clip570)" d="M1448.49 835.915 Q1451.29 830.892 1455.18 828.502 Q1459.06 826.112 1464.33 826.112 Q1471.42 826.112 1475.27 831.095 Q1479.12 836.037 1479.12 845.192 L1479.12 872.576 L1471.62 872.576 L1471.62 845.435 Q1471.62 838.913 1469.31 835.753 Q1467 832.594 1462.27 832.594 Q1456.47 832.594 1453.11 836.442 Q1449.75 840.29 1449.75 846.934 L1449.75 872.576 L1442.25 872.576 L1442.25 845.435 Q1442.25 838.872 1439.94 835.753 Q1437.64 832.594 1432.81 832.594 Q1427.1 832.594 1423.74 836.482 Q1420.38 840.331 1420.38 846.934 L1420.38 872.576 L1412.88 872.576 L1412.88 827.206 L1420.38 827.206 L1420.38 834.254 Q1422.93 830.082 1426.5 828.097 Q1430.06 826.112 1434.96 826.112 Q1439.9 826.112 1443.35 828.624 Q1446.83 831.135 1448.49 835.915 Z" fill="#000000" fill-rule="nonzero" fill-opacity="1"></path><path clip-path="url(#clip570)" d="M1532.79 848.028 L1532.79 851.673 L1498.52 851.673 Q1499.01 859.37 1503.14 863.421 Q1507.31 867.431 1514.72 867.431 Q1519.02 867.431 1523.03 866.378 Q1527.08 865.325 1531.05 863.218 L1531.05 870.267 Q1527.04 871.968 1522.83 872.86 Q1518.61 873.751 1514.28 873.751 Q1503.42 873.751 1497.06 867.431 Q1490.74 861.112 1490.74 850.337 Q1490.74 839.197 1496.74 832.675 Q1502.77 826.112 1512.98 826.112 Q1522.14 826.112 1527.44 832.026 Q1532.79 837.9 1532.79 848.028 M1525.34 845.84 Q1525.26 839.723 1521.89 836.077 Q1518.57 832.432 1513.06 832.432 Q1506.82 832.432 1503.06 835.956 Q1499.33 839.48 1498.76 845.881 L1525.34 845.84 Z" fill="#000000" fill-rule="nonzero" fill-opacity="1"></path><polyline clip-path="url(#clip573)" style="stroke:#009af9; stroke-linecap:round; stroke-linejoin:round; stroke-width:4; stroke-opacity:1; fill:none" points="273.033,1196.91 342.659,1236.02 412.285,1270.85 481.911,1298.69 551.537,1316.87 621.162,1323.39 690.788,1317.63 760.414,1300.77 830.04,1275.42 899.666,1244.89 969.291,1212.4 1038.92,1180.88 1108.54,1152.91 1178.17,1130.87 1247.79,1116.76 1317.42,1111.96 1387.05,1116.69 1456.67,1130.02 1526.3,1150 1595.92,1174.12 1665.55,1199.8 1735.18,1224.6 1804.8,1246.29 1874.43,1262.96 1944.05,1273.1 2013.68,1275.88 2083.3,1271.29 2152.93,1260.14 2222.56,1244.01 2292.18,1224.84 "></polyline>
<polyline clip-path="url(#clip573)" style="stroke:#e26f46; stroke-linecap:round; stroke-linejoin:round; stroke-width:4; stroke-opacity:1; fill:none" points="273.033,1200.9 342.659,1153.17 412.285,1105.79 481.911,1058.2 551.537,1012.62 621.162,974.989 690.788,953.947 760.414,956.696 830.04,983.984 899.666,1029.36 969.291,1083.97 1038.92,1140.94 1108.54,1196.65 1178.17,1249.72 1247.79,1299.08 1317.42,1342.64 1387.05,1376.23 1456.67,1394.95 1526.3,1394.86 1595.92,1375.61 1665.55,1340.95 1735.18,1297 1804.8,1249.06 1874.43,1200.98 1944.05,1155.48 2013.68,1115.14 2083.3,1082.81 2152.93,1062.02 2222.56,1055.52 2292.18,1064.23 "></polyline>
<polyline clip-path="url(#clip573)" style="stroke:#3da44d; stroke-linecap:round; stroke-linejoin:round; stroke-width:4; stroke-opacity:1; fill:none" points="273.033,1223.39 342.659,1182.47 412.285,1142.17 481.911,1100.2 551.537,1055.63 621.162,1010.06 690.788,968.968 760.414,941.703 830.04,937.615 899.666,960.167 969.291,1004.03 1038.92,1059.4 1108.54,1118.03 1178.17,1175.5 1247.79,1230.31 1317.42,1282.15 1387.05,1329.88 1456.67,1370.57 1526.3,1398.68 1595.92,1409.04 1665.55,1398.76 1735.18,1369.85 1804.8,1327.82 1874.43,1279.18 1944.05,1228.79 2013.68,1179.75 2083.3,1134.35 2152.93,1095.18 2222.56,1065.53 2292.18,1049.09 "></polyline>
<path clip-path="url(#clip570)" d="M1747.38 1406.52 L2281.41 1406.52 L2281.41 1199.16 L1747.38 1199.16  Z" fill="#ffffff" fill-rule="evenodd" fill-opacity="1"></path>
<polyline clip-path="url(#clip570)" style="stroke:#000000; stroke-linecap:round; stroke-linejoin:round; stroke-width:4; stroke-opacity:1; fill:none" points="1747.38,1406.52 2281.41,1406.52 2281.41,1199.16 1747.38,1199.16 1747.38,1406.52 "></polyline>
<polyline clip-path="url(#clip570)" style="stroke:#009af9; stroke-linecap:round; stroke-linejoin:round; stroke-width:4; stroke-opacity:1; fill:none" points="1771.17,1251 1913.85,1251 "></polyline>
<path clip-path="url(#clip570)" d="M1937.63 1233.72 L1942.31 1233.72 L1942.31 1268.28 L1937.63 1268.28 L1937.63 1233.72 Z" fill="#000000" fill-rule="nonzero" fill-opacity="1"></path><path clip-path="url(#clip570)" d="M1972.98 1252.63 L1972.98 1268.28 L1968.72 1268.28 L1968.72 1252.77 Q1968.72 1249.09 1967.29 1247.26 Q1965.85 1245.44 1962.98 1245.44 Q1959.53 1245.44 1957.54 1247.63 Q1955.55 1249.83 1955.55 1253.63 L1955.55 1268.28 L1951.27 1268.28 L1951.27 1242.36 L1955.55 1242.36 L1955.55 1246.38 Q1957.08 1244.05 1959.14 1242.89 Q1961.22 1241.73 1963.93 1241.73 Q1968.4 1241.73 1970.69 1244.51 Q1972.98 1247.26 1972.98 1252.63 Z" fill="#000000" fill-rule="nonzero" fill-opacity="1"></path><path clip-path="url(#clip570)" d="M1981.48 1242.36 L1985.73 1242.36 L1985.73 1268.28 L1981.48 1268.28 L1981.48 1242.36 M1981.48 1232.26 L1985.73 1232.26 L1985.73 1237.66 L1981.48 1237.66 L1981.48 1232.26 Z" fill="#000000" fill-rule="nonzero" fill-opacity="1"></path><path clip-path="url(#clip570)" d="M1998.86 1235 L1998.86 1242.36 L2007.63 1242.36 L2007.63 1245.67 L1998.86 1245.67 L1998.86 1259.74 Q1998.86 1262.91 1999.72 1263.82 Q2000.6 1264.72 2003.26 1264.72 L2007.63 1264.72 L2007.63 1268.28 L2003.26 1268.28 Q1998.33 1268.28 1996.45 1266.45 Q1994.58 1264.6 1994.58 1259.74 L1994.58 1245.67 L1991.45 1245.67 L1991.45 1242.36 L1994.58 1242.36 L1994.58 1235 L1998.86 1235 Z" fill="#000000" fill-rule="nonzero" fill-opacity="1"></path><path clip-path="url(#clip570)" d="M2013.23 1242.36 L2017.49 1242.36 L2017.49 1268.28 L2013.23 1268.28 L2013.23 1242.36 M2013.23 1232.26 L2017.49 1232.26 L2017.49 1237.66 L2013.23 1237.66 L2013.23 1232.26 Z" fill="#000000" fill-rule="nonzero" fill-opacity="1"></path><path clip-path="url(#clip570)" d="M2038.19 1255.25 Q2033.03 1255.25 2031.04 1256.43 Q2029.04 1257.61 2029.04 1260.46 Q2029.04 1262.73 2030.53 1264.07 Q2032.03 1265.39 2034.6 1265.39 Q2038.14 1265.39 2040.27 1262.89 Q2042.42 1260.37 2042.42 1256.2 L2042.42 1255.25 L2038.19 1255.25 M2046.68 1253.49 L2046.68 1268.28 L2042.42 1268.28 L2042.42 1264.35 Q2040.97 1266.71 2038.79 1267.84 Q2036.61 1268.95 2033.47 1268.95 Q2029.48 1268.95 2027.12 1266.73 Q2024.79 1264.49 2024.79 1260.74 Q2024.79 1256.36 2027.7 1254.14 Q2030.64 1251.92 2036.45 1251.92 L2042.42 1251.92 L2042.42 1251.5 Q2042.42 1248.56 2040.48 1246.96 Q2038.56 1245.34 2035.06 1245.34 Q2032.84 1245.34 2030.73 1245.88 Q2028.63 1246.41 2026.68 1247.47 L2026.68 1243.54 Q2029.02 1242.63 2031.22 1242.2 Q2033.42 1241.73 2035.5 1241.73 Q2041.13 1241.73 2043.91 1244.65 Q2046.68 1247.57 2046.68 1253.49 Z" fill="#000000" fill-rule="nonzero" fill-opacity="1"></path><path clip-path="url(#clip570)" d="M2055.46 1232.26 L2059.72 1232.26 L2059.72 1268.28 L2055.46 1268.28 L2055.46 1232.26 Z" fill="#000000" fill-rule="nonzero" fill-opacity="1"></path><path clip-path="url(#clip570)" d="M2109.76 1236.38 L2109.76 1241.32 Q2107.4 1239.12 2104.72 1238.03 Q2102.05 1236.94 2099.04 1236.94 Q2093.12 1236.94 2089.97 1240.57 Q2086.82 1244.19 2086.82 1251.04 Q2086.82 1257.87 2089.97 1261.5 Q2093.12 1265.11 2099.04 1265.11 Q2102.05 1265.11 2104.72 1264.02 Q2107.4 1262.94 2109.76 1260.74 L2109.76 1265.62 Q2107.31 1267.29 2104.55 1268.12 Q2101.82 1268.95 2098.77 1268.95 Q2090.92 1268.95 2086.41 1264.16 Q2081.89 1259.35 2081.89 1251.04 Q2081.89 1242.7 2086.41 1237.91 Q2090.92 1233.1 2098.77 1233.1 Q2101.87 1233.1 2104.6 1233.93 Q2107.35 1234.74 2109.76 1236.38 Z" fill="#000000" fill-rule="nonzero" fill-opacity="1"></path><path clip-path="url(#clip570)" d="M2126.85 1245.34 Q2123.42 1245.34 2121.43 1248.03 Q2119.44 1250.69 2119.44 1255.34 Q2119.44 1260 2121.41 1262.68 Q2123.4 1265.34 2126.85 1265.34 Q2130.25 1265.34 2132.24 1262.66 Q2134.23 1259.97 2134.23 1255.34 Q2134.23 1250.74 2132.24 1248.05 Q2130.25 1245.34 2126.85 1245.34 M2126.85 1241.73 Q2132.4 1241.73 2135.57 1245.34 Q2138.74 1248.95 2138.74 1255.34 Q2138.74 1261.71 2135.57 1265.34 Q2132.4 1268.95 2126.85 1268.95 Q2121.27 1268.95 2118.1 1265.34 Q2114.95 1261.71 2114.95 1255.34 Q2114.95 1248.95 2118.1 1245.34 Q2121.27 1241.73 2126.85 1241.73 Z" fill="#000000" fill-rule="nonzero" fill-opacity="1"></path><path clip-path="url(#clip570)" d="M2167.35 1252.63 L2167.35 1268.28 L2163.1 1268.28 L2163.1 1252.77 Q2163.1 1249.09 2161.66 1247.26 Q2160.22 1245.44 2157.35 1245.44 Q2153.91 1245.44 2151.91 1247.63 Q2149.92 1249.83 2149.92 1253.63 L2149.92 1268.28 L2145.64 1268.28 L2145.64 1242.36 L2149.92 1242.36 L2149.92 1246.38 Q2151.45 1244.05 2153.51 1242.89 Q2155.6 1241.73 2158.3 1241.73 Q2162.77 1241.73 2165.06 1244.51 Q2167.35 1247.26 2167.35 1252.63 Z" fill="#000000" fill-rule="nonzero" fill-opacity="1"></path><path clip-path="url(#clip570)" d="M2192.91 1246.29 L2192.91 1232.26 L2197.17 1232.26 L2197.17 1268.28 L2192.91 1268.28 L2192.91 1264.39 Q2191.57 1266.71 2189.51 1267.84 Q2187.47 1268.95 2184.6 1268.95 Q2179.9 1268.95 2176.94 1265.2 Q2174 1261.45 2174 1255.34 Q2174 1249.23 2176.94 1245.48 Q2179.9 1241.73 2184.6 1241.73 Q2187.47 1241.73 2189.51 1242.87 Q2191.57 1243.98 2192.91 1246.29 M2178.4 1255.34 Q2178.4 1260.04 2180.32 1262.73 Q2182.26 1265.39 2185.64 1265.39 Q2189.02 1265.39 2190.97 1262.73 Q2192.91 1260.04 2192.91 1255.34 Q2192.91 1250.64 2190.97 1247.98 Q2189.02 1245.3 2185.64 1245.3 Q2182.26 1245.3 2180.32 1247.98 Q2178.4 1250.64 2178.4 1255.34 Z" fill="#000000" fill-rule="nonzero" fill-opacity="1"></path><path clip-path="url(#clip570)" d="M2206.54 1262.4 L2211.43 1262.4 L2211.43 1268.28 L2206.54 1268.28 L2206.54 1262.4 Z" fill="#000000" fill-rule="nonzero" fill-opacity="1"></path><path clip-path="url(#clip570)" d="M2237.49 1264.35 L2245.13 1264.35 L2245.13 1237.98 L2236.82 1239.65 L2236.82 1235.39 L2245.09 1233.72 L2249.76 1233.72 L2249.76 1264.35 L2257.4 1264.35 L2257.4 1268.28 L2237.49 1268.28 L2237.49 1264.35 Z" fill="#000000" fill-rule="nonzero" fill-opacity="1"></path><polyline clip-path="url(#clip570)" style="stroke:#e26f46; stroke-linecap:round; stroke-linejoin:round; stroke-width:4; stroke-opacity:1; fill:none" points="1771.17,1302.84 1913.85,1302.84 "></polyline>
<path clip-path="url(#clip570)" d="M1937.63 1285.56 L1942.31 1285.56 L1942.31 1320.12 L1937.63 1320.12 L1937.63 1285.56 Z" fill="#000000" fill-rule="nonzero" fill-opacity="1"></path><path clip-path="url(#clip570)" d="M1972.98 1304.47 L1972.98 1320.12 L1968.72 1320.12 L1968.72 1304.61 Q1968.72 1300.93 1967.29 1299.1 Q1965.85 1297.28 1962.98 1297.28 Q1959.53 1297.28 1957.54 1299.47 Q1955.55 1301.67 1955.55 1305.47 L1955.55 1320.12 L1951.27 1320.12 L1951.27 1294.2 L1955.55 1294.2 L1955.55 1298.22 Q1957.08 1295.89 1959.14 1294.73 Q1961.22 1293.57 1963.93 1293.57 Q1968.4 1293.57 1970.69 1296.35 Q1972.98 1299.1 1972.98 1304.47 Z" fill="#000000" fill-rule="nonzero" fill-opacity="1"></path><path clip-path="url(#clip570)" d="M1981.48 1294.2 L1985.73 1294.2 L1985.73 1320.12 L1981.48 1320.12 L1981.48 1294.2 M1981.48 1284.1 L1985.73 1284.1 L1985.73 1289.5 L1981.48 1289.5 L1981.48 1284.1 Z" fill="#000000" fill-rule="nonzero" fill-opacity="1"></path><path clip-path="url(#clip570)" d="M1998.86 1286.84 L1998.86 1294.2 L2007.63 1294.2 L2007.63 1297.51 L1998.86 1297.51 L1998.86 1311.58 Q1998.86 1314.75 1999.72 1315.66 Q2000.6 1316.56 2003.26 1316.56 L2007.63 1316.56 L2007.63 1320.12 L2003.26 1320.12 Q1998.33 1320.12 1996.45 1318.29 Q1994.58 1316.44 1994.58 1311.58 L1994.58 1297.51 L1991.45 1297.51 L1991.45 1294.2 L1994.58 1294.2 L1994.58 1286.84 L1998.86 1286.84 Z" fill="#000000" fill-rule="nonzero" fill-opacity="1"></path><path clip-path="url(#clip570)" d="M2013.23 1294.2 L2017.49 1294.2 L2017.49 1320.12 L2013.23 1320.12 L2013.23 1294.2 M2013.23 1284.1 L2017.49 1284.1 L2017.49 1289.5 L2013.23 1289.5 L2013.23 1284.1 Z" fill="#000000" fill-rule="nonzero" fill-opacity="1"></path><path clip-path="url(#clip570)" d="M2038.19 1307.09 Q2033.03 1307.09 2031.04 1308.27 Q2029.04 1309.45 2029.04 1312.3 Q2029.04 1314.57 2030.53 1315.91 Q2032.03 1317.23 2034.6 1317.23 Q2038.14 1317.23 2040.27 1314.73 Q2042.42 1312.21 2042.42 1308.04 L2042.42 1307.09 L2038.19 1307.09 M2046.68 1305.33 L2046.68 1320.12 L2042.42 1320.12 L2042.42 1316.19 Q2040.97 1318.55 2038.79 1319.68 Q2036.61 1320.79 2033.47 1320.79 Q2029.48 1320.79 2027.12 1318.57 Q2024.79 1316.33 2024.79 1312.58 Q2024.79 1308.2 2027.7 1305.98 Q2030.64 1303.76 2036.45 1303.76 L2042.42 1303.76 L2042.42 1303.34 Q2042.42 1300.4 2040.48 1298.8 Q2038.56 1297.18 2035.06 1297.18 Q2032.84 1297.18 2030.73 1297.72 Q2028.63 1298.25 2026.68 1299.31 L2026.68 1295.38 Q2029.02 1294.47 2031.22 1294.04 Q2033.42 1293.57 2035.5 1293.57 Q2041.13 1293.57 2043.91 1296.49 Q2046.68 1299.41 2046.68 1305.33 Z" fill="#000000" fill-rule="nonzero" fill-opacity="1"></path><path clip-path="url(#clip570)" d="M2055.46 1284.1 L2059.72 1284.1 L2059.72 1320.12 L2055.46 1320.12 L2055.46 1284.1 Z" fill="#000000" fill-rule="nonzero" fill-opacity="1"></path><path clip-path="url(#clip570)" d="M2109.76 1288.22 L2109.76 1293.16 Q2107.4 1290.96 2104.72 1289.87 Q2102.05 1288.78 2099.04 1288.78 Q2093.12 1288.78 2089.97 1292.41 Q2086.82 1296.03 2086.82 1302.88 Q2086.82 1309.71 2089.97 1313.34 Q2093.12 1316.95 2099.04 1316.95 Q2102.05 1316.95 2104.72 1315.86 Q2107.4 1314.78 2109.76 1312.58 L2109.76 1317.46 Q2107.31 1319.13 2104.55 1319.96 Q2101.82 1320.79 2098.77 1320.79 Q2090.92 1320.79 2086.41 1316 Q2081.89 1311.19 2081.89 1302.88 Q2081.89 1294.54 2086.41 1289.75 Q2090.92 1284.94 2098.77 1284.94 Q2101.87 1284.94 2104.6 1285.77 Q2107.35 1286.58 2109.76 1288.22 Z" fill="#000000" fill-rule="nonzero" fill-opacity="1"></path><path clip-path="url(#clip570)" d="M2126.85 1297.18 Q2123.42 1297.18 2121.43 1299.87 Q2119.44 1302.53 2119.44 1307.18 Q2119.44 1311.84 2121.41 1314.52 Q2123.4 1317.18 2126.85 1317.18 Q2130.25 1317.18 2132.24 1314.5 Q2134.23 1311.81 2134.23 1307.18 Q2134.23 1302.58 2132.24 1299.89 Q2130.25 1297.18 2126.85 1297.18 M2126.85 1293.57 Q2132.4 1293.57 2135.57 1297.18 Q2138.74 1300.79 2138.74 1307.18 Q2138.74 1313.55 2135.57 1317.18 Q2132.4 1320.79 2126.85 1320.79 Q2121.27 1320.79 2118.1 1317.18 Q2114.95 1313.55 2114.95 1307.18 Q2114.95 1300.79 2118.1 1297.18 Q2121.27 1293.57 2126.85 1293.57 Z" fill="#000000" fill-rule="nonzero" fill-opacity="1"></path><path clip-path="url(#clip570)" d="M2167.35 1304.47 L2167.35 1320.12 L2163.1 1320.12 L2163.1 1304.61 Q2163.1 1300.93 2161.66 1299.1 Q2160.22 1297.28 2157.35 1297.28 Q2153.91 1297.28 2151.91 1299.47 Q2149.92 1301.67 2149.92 1305.47 L2149.92 1320.12 L2145.64 1320.12 L2145.64 1294.2 L2149.92 1294.2 L2149.92 1298.22 Q2151.45 1295.89 2153.51 1294.73 Q2155.6 1293.57 2158.3 1293.57 Q2162.77 1293.57 2165.06 1296.35 Q2167.35 1299.1 2167.35 1304.47 Z" fill="#000000" fill-rule="nonzero" fill-opacity="1"></path><path clip-path="url(#clip570)" d="M2192.91 1298.13 L2192.91 1284.1 L2197.17 1284.1 L2197.17 1320.12 L2192.91 1320.12 L2192.91 1316.23 Q2191.57 1318.55 2189.51 1319.68 Q2187.47 1320.79 2184.6 1320.79 Q2179.9 1320.79 2176.94 1317.04 Q2174 1313.29 2174 1307.18 Q2174 1301.07 2176.94 1297.32 Q2179.9 1293.57 2184.6 1293.57 Q2187.47 1293.57 2189.51 1294.71 Q2191.57 1295.82 2192.91 1298.13 M2178.4 1307.18 Q2178.4 1311.88 2180.32 1314.57 Q2182.26 1317.23 2185.64 1317.23 Q2189.02 1317.23 2190.97 1314.57 Q2192.91 1311.88 2192.91 1307.18 Q2192.91 1302.48 2190.97 1299.82 Q2189.02 1297.14 2185.64 1297.14 Q2182.26 1297.14 2180.32 1299.82 Q2178.4 1302.48 2178.4 1307.18 Z" fill="#000000" fill-rule="nonzero" fill-opacity="1"></path><path clip-path="url(#clip570)" d="M2206.54 1314.24 L2211.43 1314.24 L2211.43 1320.12 L2206.54 1320.12 L2206.54 1314.24 Z" fill="#000000" fill-rule="nonzero" fill-opacity="1"></path><path clip-path="url(#clip570)" d="M2240.71 1316.19 L2257.03 1316.19 L2257.03 1320.12 L2235.09 1320.12 L2235.09 1316.19 Q2237.75 1313.43 2242.33 1308.8 Q2246.94 1304.15 2248.12 1302.81 Q2250.36 1300.29 2251.24 1298.55 Q2252.15 1296.79 2252.15 1295.1 Q2252.15 1292.35 2250.2 1290.61 Q2248.28 1288.87 2245.18 1288.87 Q2242.98 1288.87 2240.53 1289.64 Q2238.09 1290.4 2235.32 1291.95 L2235.32 1287.23 Q2238.14 1286.1 2240.59 1285.52 Q2243.05 1284.94 2245.09 1284.94 Q2250.46 1284.94 2253.65 1287.62 Q2256.84 1290.31 2256.84 1294.8 Q2256.84 1296.93 2256.03 1298.85 Q2255.25 1300.75 2253.14 1303.34 Q2252.56 1304.01 2249.46 1307.23 Q2246.36 1310.42 2240.71 1316.19 Z" fill="#000000" fill-rule="nonzero" fill-opacity="1"></path><polyline clip-path="url(#clip570)" style="stroke:#3da44d; stroke-linecap:round; stroke-linejoin:round; stroke-width:4; stroke-opacity:1; fill:none" points="1771.17,1354.68 1913.85,1354.68 "></polyline>
<path clip-path="url(#clip570)" d="M1937.63 1337.4 L1942.31 1337.4 L1942.31 1371.96 L1937.63 1371.96 L1937.63 1337.4 Z" fill="#000000" fill-rule="nonzero" fill-opacity="1"></path><path clip-path="url(#clip570)" d="M1972.98 1356.31 L1972.98 1371.96 L1968.72 1371.96 L1968.72 1356.45 Q1968.72 1352.77 1967.29 1350.94 Q1965.85 1349.12 1962.98 1349.12 Q1959.53 1349.12 1957.54 1351.31 Q1955.55 1353.51 1955.55 1357.31 L1955.55 1371.96 L1951.27 1371.96 L1951.27 1346.04 L1955.55 1346.04 L1955.55 1350.06 Q1957.08 1347.73 1959.14 1346.57 Q1961.22 1345.41 1963.93 1345.41 Q1968.4 1345.41 1970.69 1348.19 Q1972.98 1350.94 1972.98 1356.31 Z" fill="#000000" fill-rule="nonzero" fill-opacity="1"></path><path clip-path="url(#clip570)" d="M1981.48 1346.04 L1985.73 1346.04 L1985.73 1371.96 L1981.48 1371.96 L1981.48 1346.04 M1981.48 1335.94 L1985.73 1335.94 L1985.73 1341.34 L1981.48 1341.34 L1981.48 1335.94 Z" fill="#000000" fill-rule="nonzero" fill-opacity="1"></path><path clip-path="url(#clip570)" d="M1998.86 1338.68 L1998.86 1346.04 L2007.63 1346.04 L2007.63 1349.35 L1998.86 1349.35 L1998.86 1363.42 Q1998.86 1366.59 1999.72 1367.5 Q2000.6 1368.4 2003.26 1368.4 L2007.63 1368.4 L2007.63 1371.96 L2003.26 1371.96 Q1998.33 1371.96 1996.45 1370.13 Q1994.58 1368.28 1994.58 1363.42 L1994.58 1349.35 L1991.45 1349.35 L1991.45 1346.04 L1994.58 1346.04 L1994.58 1338.68 L1998.86 1338.68 Z" fill="#000000" fill-rule="nonzero" fill-opacity="1"></path><path clip-path="url(#clip570)" d="M2013.23 1346.04 L2017.49 1346.04 L2017.49 1371.96 L2013.23 1371.96 L2013.23 1346.04 M2013.23 1335.94 L2017.49 1335.94 L2017.49 1341.34 L2013.23 1341.34 L2013.23 1335.94 Z" fill="#000000" fill-rule="nonzero" fill-opacity="1"></path><path clip-path="url(#clip570)" d="M2038.19 1358.93 Q2033.03 1358.93 2031.04 1360.11 Q2029.04 1361.29 2029.04 1364.14 Q2029.04 1366.41 2030.53 1367.75 Q2032.03 1369.07 2034.6 1369.07 Q2038.14 1369.07 2040.27 1366.57 Q2042.42 1364.05 2042.42 1359.88 L2042.42 1358.93 L2038.19 1358.93 M2046.68 1357.17 L2046.68 1371.96 L2042.42 1371.96 L2042.42 1368.03 Q2040.97 1370.39 2038.79 1371.52 Q2036.61 1372.63 2033.47 1372.63 Q2029.48 1372.63 2027.12 1370.41 Q2024.79 1368.17 2024.79 1364.42 Q2024.79 1360.04 2027.7 1357.82 Q2030.64 1355.6 2036.45 1355.6 L2042.42 1355.6 L2042.42 1355.18 Q2042.42 1352.24 2040.48 1350.64 Q2038.56 1349.02 2035.06 1349.02 Q2032.84 1349.02 2030.73 1349.56 Q2028.63 1350.09 2026.68 1351.15 L2026.68 1347.22 Q2029.02 1346.31 2031.22 1345.88 Q2033.42 1345.41 2035.5 1345.41 Q2041.13 1345.41 2043.91 1348.33 Q2046.68 1351.25 2046.68 1357.17 Z" fill="#000000" fill-rule="nonzero" fill-opacity="1"></path><path clip-path="url(#clip570)" d="M2055.46 1335.94 L2059.72 1335.94 L2059.72 1371.96 L2055.46 1371.96 L2055.46 1335.94 Z" fill="#000000" fill-rule="nonzero" fill-opacity="1"></path><path clip-path="url(#clip570)" d="M2109.76 1340.06 L2109.76 1345 Q2107.4 1342.8 2104.72 1341.71 Q2102.05 1340.62 2099.04 1340.62 Q2093.12 1340.62 2089.97 1344.25 Q2086.82 1347.87 2086.82 1354.72 Q2086.82 1361.55 2089.97 1365.18 Q2093.12 1368.79 2099.04 1368.79 Q2102.05 1368.79 2104.72 1367.7 Q2107.4 1366.62 2109.76 1364.42 L2109.76 1369.3 Q2107.31 1370.97 2104.55 1371.8 Q2101.82 1372.63 2098.77 1372.63 Q2090.92 1372.63 2086.41 1367.84 Q2081.89 1363.03 2081.89 1354.72 Q2081.89 1346.38 2086.41 1341.59 Q2090.92 1336.78 2098.77 1336.78 Q2101.87 1336.78 2104.6 1337.61 Q2107.35 1338.42 2109.76 1340.06 Z" fill="#000000" fill-rule="nonzero" fill-opacity="1"></path><path clip-path="url(#clip570)" d="M2126.85 1349.02 Q2123.42 1349.02 2121.43 1351.71 Q2119.44 1354.37 2119.44 1359.02 Q2119.44 1363.68 2121.41 1366.36 Q2123.4 1369.02 2126.85 1369.02 Q2130.25 1369.02 2132.24 1366.34 Q2134.23 1363.65 2134.23 1359.02 Q2134.23 1354.42 2132.24 1351.73 Q2130.25 1349.02 2126.85 1349.02 M2126.85 1345.41 Q2132.4 1345.41 2135.57 1349.02 Q2138.74 1352.63 2138.74 1359.02 Q2138.74 1365.39 2135.57 1369.02 Q2132.4 1372.63 2126.85 1372.63 Q2121.27 1372.63 2118.1 1369.02 Q2114.95 1365.39 2114.95 1359.02 Q2114.95 1352.63 2118.1 1349.02 Q2121.27 1345.41 2126.85 1345.41 Z" fill="#000000" fill-rule="nonzero" fill-opacity="1"></path><path clip-path="url(#clip570)" d="M2167.35 1356.31 L2167.35 1371.96 L2163.1 1371.96 L2163.1 1356.45 Q2163.1 1352.77 2161.66 1350.94 Q2160.22 1349.12 2157.35 1349.12 Q2153.91 1349.12 2151.91 1351.31 Q2149.92 1353.51 2149.92 1357.31 L2149.92 1371.96 L2145.64 1371.96 L2145.64 1346.04 L2149.92 1346.04 L2149.92 1350.06 Q2151.45 1347.73 2153.51 1346.57 Q2155.6 1345.41 2158.3 1345.41 Q2162.77 1345.41 2165.06 1348.19 Q2167.35 1350.94 2167.35 1356.31 Z" fill="#000000" fill-rule="nonzero" fill-opacity="1"></path><path clip-path="url(#clip570)" d="M2192.91 1349.97 L2192.91 1335.94 L2197.17 1335.94 L2197.17 1371.96 L2192.91 1371.96 L2192.91 1368.07 Q2191.57 1370.39 2189.51 1371.52 Q2187.47 1372.63 2184.6 1372.63 Q2179.9 1372.63 2176.94 1368.88 Q2174 1365.13 2174 1359.02 Q2174 1352.91 2176.94 1349.16 Q2179.9 1345.41 2184.6 1345.41 Q2187.47 1345.41 2189.51 1346.55 Q2191.57 1347.66 2192.91 1349.97 M2178.4 1359.02 Q2178.4 1363.72 2180.32 1366.41 Q2182.26 1369.07 2185.64 1369.07 Q2189.02 1369.07 2190.97 1366.41 Q2192.91 1363.72 2192.91 1359.02 Q2192.91 1354.32 2190.97 1351.66 Q2189.02 1348.98 2185.64 1348.98 Q2182.26 1348.98 2180.32 1351.66 Q2178.4 1354.32 2178.4 1359.02 Z" fill="#000000" fill-rule="nonzero" fill-opacity="1"></path><path clip-path="url(#clip570)" d="M2206.54 1366.08 L2211.43 1366.08 L2211.43 1371.96 L2206.54 1371.96 L2206.54 1366.08 Z" fill="#000000" fill-rule="nonzero" fill-opacity="1"></path><path clip-path="url(#clip570)" d="M2236.73 1337.4 L2255.09 1337.4 L2255.09 1341.34 L2241.01 1341.34 L2241.01 1349.81 Q2242.03 1349.46 2243.05 1349.3 Q2244.07 1349.12 2245.09 1349.12 Q2250.87 1349.12 2254.25 1352.29 Q2257.63 1355.46 2257.63 1360.88 Q2257.63 1366.45 2254.16 1369.56 Q2250.69 1372.63 2244.37 1372.63 Q2242.19 1372.63 2239.92 1372.26 Q2237.68 1371.89 2235.27 1371.15 L2235.27 1366.45 Q2237.35 1367.59 2239.58 1368.14 Q2241.8 1368.7 2244.28 1368.7 Q2248.28 1368.7 2250.62 1366.59 Q2252.96 1364.49 2252.96 1360.88 Q2252.96 1357.26 2250.62 1355.16 Q2248.28 1353.05 2244.28 1353.05 Q2242.4 1353.05 2240.53 1353.47 Q2238.67 1353.88 2236.73 1354.76 L2236.73 1337.4 Z" fill="#000000" fill-rule="nonzero" fill-opacity="1"></path></svg>